<svg width="20" height="20" viewBox="0 0 20 20" fill="none" xmlns="http://www.w3.org/2000/svg">
<path d="M10 1.25C8.26942 1.25 6.57769 1.76318 5.13876 2.72464C3.69983 3.6861 2.57832 5.05267 1.91606 6.65152C1.25379 8.25037 1.08051 10.0097 1.41813 11.707C1.75575 13.4044 2.58911 14.9635 3.81282 16.1872C5.03653 17.4109 6.59563 18.2443 8.29296 18.5819C9.9903 18.9195 11.7496 18.7462 13.3485 18.0839C14.9473 17.4217 16.3139 16.3002 17.2754 14.8612C18.2368 13.4223 18.75 11.7306 18.75 10C18.7474 7.68017 17.8246 5.45611 16.1843 3.81574C14.5439 2.17537 12.3198 1.25265 10 1.25V1.25ZM14.995 15.5788C14.9825 14.759 14.6485 13.9769 14.0649 13.401C13.4814 12.8251 12.6949 12.5015 11.875 12.5H8.125C7.30512 12.5015 6.51865 12.8251 5.93506 13.401C5.35147 13.9769 5.01746 14.759 5.005 15.5788C3.87161 14.5667 3.07234 13.2343 2.71303 11.7579C2.35372 10.2815 2.45132 8.73084 2.9929 7.31116C3.53449 5.89148 4.49452 4.66979 5.74586 3.80785C6.99721 2.94592 8.48084 2.48439 10.0003 2.48439C11.5198 2.48439 13.0034 2.94592 14.2548 3.80785C15.5061 4.66979 16.4661 5.89148 17.0077 7.31116C17.5493 8.73084 17.6469 10.2815 17.2876 11.7579C16.9283 13.2343 16.129 14.5667 14.9956 15.5788H14.995Z" fill="white"/>
<g clip-path="url(#clip0_604_78)">
<path d="M7.21289 8.04436C7.34473 9.37248 8.41406 10.518 9.68848 10.518C11.0654 10.518 12.1934 9.18986 12.1934 7.74553V7.71232C10.7578 7.4965 8.95605 8.67522 7.21289 8.04436" fill="#BA1B1B"/>
<path opacity="0.8" d="M12.9102 7.76172C12.9102 5.86914 12.0752 4.70703 12.0752 4.70703H7.2998C7.2998 4.70703 6.46484 5.88574 6.46484 7.76172C6.46484 9.55469 7.82715 11.2314 9.52637 11.3311C9.51172 12.377 9.42383 13.4561 9.2041 13.8379C8.88184 14.3691 7.76855 14.1035 7.76855 14.668H11.6064C11.6064 14.1035 10.4932 14.3691 10.1709 13.8379C9.95117 13.4561 9.86328 12.377 9.84863 11.3311C11.5479 11.2314 12.9102 9.57129 12.9102 7.76172ZM9.6875 10.8994C8.25195 10.8994 7.06543 9.60449 6.91895 8.12695C6.9043 8.02734 6.9043 7.91113 6.9043 7.81152C6.9043 6.16797 7.62207 5.17188 7.62207 5.17188H11.7529C11.7529 5.17188 12.4561 6.16797 12.4707 7.77832V7.81152C12.4707 9.40527 11.2256 10.8994 9.6875 10.8994Z" fill="white"/>
</g>
<defs>
<clipPath id="clip0_604_78">
<rect width="9.375" height="10.625" fill="white" transform="translate(5 4.375)"/>
</clipPath>
</defs>
</svg>
