<svg width="32" height="32" viewBox="0 0 32 32" fill="none" xmlns="http://www.w3.org/2000/svg">
<path d="M6 30H26V25C25.9979 23.1441 25.2597 21.3649 23.9474 20.0526C22.6351 18.7403 20.8559 18.0021 19 18H13C11.1441 18.0021 9.36489 18.7403 8.05259 20.0526C6.7403 21.3649 6.00212 23.1441 6 25V30Z" fill="white"/>
<path d="M11.541 9.5247C11.752 11.5247 13.4629 13.2497 15.502 13.2497C17.7051 13.2497 19.5098 11.2497 19.5098 9.0747V9.0247C17.2129 8.6997 14.3301 10.4747 11.541 9.5247" fill="#24FF00"/>
<path opacity="0.8" d="M20.6562 9.1C20.6562 6.25 19.3203 4.5 19.3203 4.5H11.6797C11.6797 4.5 10.3438 6.275 10.3438 9.1C10.3438 11.8 12.5234 14.325 15.2422 14.475C15.2187 16.05 15.0781 17.675 14.7266 18.25C14.2109 19.05 12.4297 18.65 12.4297 19.5H18.5703C18.5703 18.65 16.7891 19.05 16.2734 18.25C15.9219 17.675 15.7812 16.05 15.7578 14.475C18.4766 14.325 20.6562 11.825 20.6562 9.1ZM15.5 13.825C13.2031 13.825 11.3047 11.875 11.0703 9.65C11.0469 9.5 11.0469 9.325 11.0469 9.175C11.0469 6.7 12.1953 5.2 12.1953 5.2H18.8047C18.8047 5.2 19.9297 6.7 19.9531 9.125V9.175C19.9531 11.575 17.9609 13.825 15.5 13.825Z" fill="white"/>
</svg>
