<?xml version="1.0" encoding="iso-8859-1"?>
<!-- Generator: Adobe Illustrator 19.0.0, SVG Export Plug-In . SVG Version: 6.00 Build 0)  -->
<svg version="1.1" id="Capa_1" xmlns="http://www.w3.org/2000/svg" xmlns:xlink="http://www.w3.org/1999/xlink" x="0px" y="0px"
	 viewBox="0 0 511.999 511.999" style="enable-background:new 0 0 511.999 511.999;" xml:space="preserve">
<g>
	<g>
		<path d="M88,224c-2.211,0-4,1.789-4,4v271.999c0,2.211,1.789,4,4,4s4-1.789,4-4V228C92,225.789,90.211,224,88,224z"/>
	</g>
</g>
<g>
	<g>
		<path d="M96,503.999c-2.207,0-4-1.797-4-4c0-2.211-1.789-4-4-4s-4,1.789-4,4c0,6.617,5.383,12,12,12c2.211,0,4-1.789,4-4
			S98.211,503.999,96,503.999z"/>
	</g>
</g>
<g>
	<g>
		<path d="M224,224c-2.211,0-4,1.789-4,4v271.999c0,2.211,1.789,4,4,4c2.21,0,4-1.789,4-4V228C228,225.789,226.211,224,224,224z"/>
	</g>
</g>
<g>
	<g>
		<path d="M224,495.999c-2.211,0-4,1.789-4,4c0,2.203-1.793,4-4,4c-2.211,0-4,1.789-4,4s1.789,4,4,4c6.617,0,12-5.383,12-12
			C228,497.788,226.211,495.999,224,495.999z"/>
	</g>
</g>
<g>
	<g>
		<path d="M216,503.999H96c-2.211,0-4,1.789-4,4s1.789,4,4,4h120c2.21,0,4-1.789,4-4S218.211,503.999,216,503.999z"/>
	</g>
</g>
<g>
	<g>
		<path d="M136,0c-2.211,0-4,1.789-4,4v152c0,2.211,1.789,4,4,4s4-1.789,4-4V4C140,1.789,138.211,0,136,0z"/>
	</g>
</g>
<g>
	<g>
		<path d="M176,0c-2.211,0-4,1.789-4,4v152c0,2.211,1.789,4,4,4s4-1.789,4-4V4C180,1.789,178.211,0,176,0z"/>
	</g>
</g>
<g>
	<g>
		<path d="M139.328,153.781c-1.231-1.839-3.711-2.336-5.547-1.109C131.75,154.028,84,186.34,84,228c0,2.211,1.789,4,4,4s4-1.789,4-4
			c0-37.363,45.758-68.363,46.219-68.672C140.058,158.101,140.551,155.617,139.328,153.781z"/>
	</g>
</g>
<g>
	<g>
		<path d="M178.22,152.673c-1.844-1.227-4.324-0.731-5.547,1.109c-1.223,1.836-0.731,4.32,1.109,5.547
			C174.243,159.637,220,190.637,220,228c0,2.211,1.789,4,4,4c2.21,0,4-1.789,4-4C228,186.34,180.25,154.028,178.22,152.673z"/>
	</g>
</g>
<g>
	<g>
		<path d="M176,0.001h-40c-2.211,0-4,1.789-4,4s1.789,4,4,4h40c2.211,0,4-1.789,4-4S178.211,0.001,176,0.001z"/>
	</g>
</g>
<g>
	<g>
		<path d="M176,104.001h-40c-2.211,0-4,1.789-4,4s1.789,4,4,4h40c2.211,0,4-1.789,4-4S178.211,104.001,176,104.001z"/>
	</g>
</g>
<g>
	<g>
		<path d="M168,16.001h-24c-2.211,0-4,1.789-4,4s1.789,4,4,4h24c2.211,0,4-1.789,4-4S170.211,16.001,168,16.001z"/>
	</g>
</g>
<g>
	<g>
		<path d="M168,32.001h-24c-2.211,0-4,1.789-4,4s1.789,4,4,4h24c2.211,0,4-1.789,4-4S170.211,32.001,168,32.001z"/>
	</g>
</g>
<g>
	<g>
		<path d="M208,280H104c-2.211,0-4,1.789-4,4s1.789,4,4,4h104c2.21,0,4-1.789,4-4S210.211,280,208,280z"/>
	</g>
</g>
<g>
	<g>
		<path d="M208,423.999H104c-2.211,0-4,1.789-4,4s1.789,4,4,4h104c2.21,0,4-1.789,4-4S210.211,423.999,208,423.999z"/>
	</g>
</g>
<g>
	<g>
		<path d="M156,343.999c-6.617,0-12,5.383-12,12s5.383,12,12,12s12-5.383,12-12S162.617,343.999,156,343.999z M156,359.999
			c-2.207,0-4-1.797-4-4s1.793-4,4-4c2.207,0,4,1.797,4,4S158.207,359.999,156,359.999z"/>
	</g>
</g>
<g>
	<g>
		<path d="M144,324c-6.617,0-12,5.383-12,12c0,6.616,5.383,11.999,12,11.999s12-5.383,12-11.999C156,329.383,150.617,324,144,324z
			 M144,339.999c-2.207,0-4-1.797-4-3.999c0-2.203,1.793-4,4-4c2.207,0,4,1.797,4,4C148,338.202,146.207,339.999,144,339.999z"/>
	</g>
</g>
<g>
	<g>
		<path d="M168,324c-6.617,0-12,5.383-12,12c0,6.616,5.383,11.999,12,11.999s12-5.383,12-11.999C180,329.383,174.617,324,168,324z
			 M168,339.999c-2.207,0-4-1.797-4-3.999c0-2.203,1.793-4,4-4c2.207,0,4,1.797,4,4C172,338.202,170.207,339.999,168,339.999z"/>
	</g>
</g>
<g>
	<g>
		<path d="M168,304c-5.535,0-16,4.18-16,20c0,2.211,1.789,4,4,4s4-1.789,4-4c0-11.203,6.711-11.961,8-12c2.211,0,4-1.789,4-4
			S170.211,304,168,304z"/>
	</g>
</g>
<g>
	<g>
		<path d="M192,383.999h-72c-2.211,0-4,1.789-4,4s1.789,4,4,4h72c2.21,0,4-1.789,4-4S194.211,383.999,192,383.999z"/>
	</g>
</g>
<g>
	<g>
		<path d="M176,399.999h-40c-2.211,0-4,1.789-4,4s1.789,4,4,4h40c2.211,0,4-1.789,4-4S178.211,399.999,176,399.999z"/>
	</g>
</g>
<g>
	<g>
		<path d="M178.41,171.126c-1.75-1.348-4.265-0.996-5.605,0.754c-1.34,1.753-1.004,4.265,0.754,5.605
			C187.445,188.086,204,205.453,204,228.008c0,2.211,1.789,4,4,4c2.21,0,4-1.789,4-4C212,202.184,193.734,182.82,178.41,171.126z"/>
	</g>
</g>
<g>
	<g>
		<path d="M208,224.008c-2.211,0-4,1.789-4,4V268c0,2.211,1.789,4,4,4c2.21,0,4-1.789,4-4v-39.992
			C212,225.797,210.211,224.008,208,224.008z"/>
	</g>
</g>
<g>
	<g>
		<path d="M208,439.999c-2.211,0-4,1.789-4,4v40c0,2.211,1.789,4,4,4c2.21,0,4-1.789,4-4v-40
			C212,441.788,210.211,439.999,208,439.999z"/>
	</g>
</g>
<g>
	<g>
		<path d="M104,280c-2.211,0-4,1.789-4,4v143.999c0,2.211,1.789,4,4,4s4-1.789,4-4V284C108,281.789,106.211,280,104,280z"/>
	</g>
</g>
<g>
	<g>
		<path d="M208,280c-2.211,0-4,1.789-4,4v143.999c0,2.211,1.789,4,4,4c2.21,0,4-1.789,4-4V284C212,281.789,210.211,280,208,280z"/>
	</g>
</g>
<g>
	<g>
		<path d="M108,499.999c-2.211,0-4,1.789-4,4v4c0,2.211,1.789,4,4,4s4-1.789,4-4v-4C112,501.788,110.211,499.999,108,499.999z"/>
	</g>
</g>
<g>
	<g>
		<path d="M124,499.999c-2.211,0-4,1.789-4,4v4c0,2.211,1.789,4,4,4s4-1.789,4-4v-4C128,501.788,126.211,499.999,124,499.999z"/>
	</g>
</g>
<g>
	<g>
		<path d="M140,499.999c-2.211,0-4,1.789-4,4v4c0,2.211,1.789,4,4,4s4-1.789,4-4v-4C144,501.788,142.211,499.999,140,499.999z"/>
	</g>
</g>
<g>
	<g>
		<path d="M156,499.999c-2.211,0-4,1.789-4,4v4c0,2.211,1.789,4,4,4s4-1.789,4-4v-4C160,501.788,158.211,499.999,156,499.999z"/>
	</g>
</g>
<g>
	<g>
		<path d="M172,499.999c-2.211,0-4,1.789-4,4v4c0,2.211,1.789,4,4,4s4-1.789,4-4v-4C176,501.788,174.211,499.999,172,499.999z"/>
	</g>
</g>
<g>
	<g>
		<path d="M188,499.999c-2.211,0-4,1.789-4,4v4c0,2.211,1.789,4,4,4c2.21,0,4-1.789,4-4v-4C192,501.788,190.211,499.999,188,499.999
			z"/>
	</g>
</g>
<g>
	<g>
		<path d="M204,499.999c-2.211,0-4,1.789-4,4v4c0,2.211,1.789,4,4,4c2.21,0,4-1.789,4-4v-4C208,501.788,206.211,499.999,204,499.999
			z"/>
	</g>
</g>
<g>
	<g>
		<path d="M353.506,392.295c-0.657-0.265-65.657-27.203-69.18-68.819c-3.593-42.601,23.704-84.863,23.977-85.285
			c1.211-1.847,0.696-4.328-1.156-5.535c-1.836-1.215-4.328-0.688-5.531,1.148c-1.196,1.817-29.094,44.946-25.258,90.344
			c3.93,46.507,71.266,74.398,74.133,75.554c0.492,0.203,1,0.297,1.508,0.297c1.578,0,3.07-0.937,3.702-2.493
			C356.529,395.459,355.553,393.123,353.506,392.295z"/>
	</g>
</g>
<g>
	<g>
		<path d="M402.381,233.805c-1.203-1.843-3.687-2.367-5.539-1.148c-1.844,1.207-2.359,3.687-1.156,5.535
			c0.281,0.422,27.578,42.683,23.984,85.285c-3.524,41.616-68.523,68.553-69.179,68.819c-2.047,0.828-3.031,3.164-2.195,5.211
			c0.625,1.554,2.125,2.492,3.703,2.492c0.5,0,1.008-0.094,1.508-0.296c2.86-1.157,70.194-29.047,74.132-75.554
			C431.467,278.75,403.569,235.621,402.381,233.805z"/>
	</g>
</g>
<g>
	<g>
		<path d="M399.037,232H304.96c-2.211,0-4,1.789-4,4s1.789,4,4,4h94.077c2.211,0,4-1.789,4-4S401.248,232,399.037,232z"/>
	</g>
</g>
<g>
	<g>
		<path d="M351.999,391.999c-2.211,0-4,1.789-4,4v96c0,2.211,1.789,4,4,4s4-1.789,4-4v-96
			C355.999,393.788,354.21,391.999,351.999,391.999z"/>
	</g>
</g>
<g>
	<g>
		<path d="M407.998,503.999H295.999c-2.211,0-4,1.789-4,4s1.789,4,4,4h111.999c2.211,0,4-1.789,4-4S410.209,503.999,407.998,503.999
			z"/>
	</g>
</g>
<g>
	<g>
		<path d="M378.218,504.671l-24-16c-1.852-1.235-4.328-0.735-5.547,1.109c-1.227,1.844-0.735,4.32,1.109,5.547l24,16
			c0.68,0.453,1.453,0.672,2.211,0.672c1.297,0,2.563-0.625,3.336-1.781C380.554,508.374,380.054,505.898,378.218,504.671z"/>
	</g>
</g>
<g>
	<g>
		<path d="M355.327,489.78c-1.227-1.843-3.711-2.343-5.547-1.109l-24,16c-1.843,1.227-2.336,3.703-1.109,5.547
			c0.766,1.156,2.039,1.781,3.328,1.781c0.766,0,1.531-0.219,2.219-0.672l24-16C356.054,494.1,356.554,491.623,355.327,489.78z"/>
	</g>
</g>
<g>
	<g>
		<path d="M423.998,312H280.007c-2.211,0-4,1.789-4,4s1.789,4,4,4h143.991c2.211,0,4-1.789,4-4S426.209,312,423.998,312z"/>
	</g>
</g>
<g>
	<g>
		<path d="M406.553,328.422c-1.984-0.992-4.383-0.188-5.375,1.781c-5.188,10.343-18.71,30.093-50.968,46.218
			c-1.977,0.984-2.781,3.39-1.789,5.367c0.703,1.399,2.109,2.211,3.578,2.211c0.602,0,1.211-0.141,1.789-0.422
			c34.32-17.164,48.905-38.562,54.538-49.78C409.319,331.82,408.522,329.422,406.553,328.422z"/>
	</g>
</g>
<g>
</g>
<g>
</g>
<g>
</g>
<g>
</g>
<g>
</g>
<g>
</g>
<g>
</g>
<g>
</g>
<g>
</g>
<g>
</g>
<g>
</g>
<g>
</g>
<g>
</g>
<g>
</g>
<g>
</g>
</svg>
