<?xml version="1.0" encoding="iso-8859-1"?>
<!-- Generator: Adobe Illustrator 19.0.0, SVG Export Plug-In . SVG Version: 6.00 Build 0)  -->
<svg version="1.1" id="Capa_1" xmlns="http://www.w3.org/2000/svg" xmlns:xlink="http://www.w3.org/1999/xlink" x="0px" y="0px"
	 viewBox="0 0 480 480" style="enable-background:new 0 0 480 480;" xml:space="preserve">
<g>
	<g>
		<path style="fill:#FFE0B1;" d="M464,0H16C7.18,0,0,7.176,0,16v448c0,8.824,7.18,16,16,16h448c8.82,0,16-7.176,16-16V16
			C480,7.176,472.82,0,464,0z"/>
	</g>
	<g>
		<g>
			<path style="fill:#F7AA6B;" d="M400,248H80c-4.422,0-8-3.582-8-8s3.578-8,8-8h320c4.422,0,8,3.582,8,8S404.422,248,400,248z"/>
		</g>
	</g>
	<g>
		<g>
			<path style="fill:#F7AA6B;" d="M400,328H80c-4.422,0-8-3.582-8-8s3.578-8,8-8h320c4.422,0,8,3.582,8,8S404.422,328,400,328z"/>
		</g>
	</g>
	<g>
		<g>
			<path style="fill:#F7AA6B;" d="M400,168H80c-4.422,0-8-3.582-8-8s3.578-8,8-8h320c4.422,0,8,3.582,8,8S404.422,168,400,168z"/>
		</g>
	</g>
	<g>
		<path style="fill:#F7AA6B;" d="M479.404,468.091L408,396.688V83.313l71.404-71.404c-1.471-5.521-5.793-9.841-11.313-11.312
			L396.688,72H83.313L11.909,0.597C6.39,2.067,2.067,6.388,0.596,11.909L72,83.313v313.375L0.596,468.091
			c1.471,5.521,5.793,9.841,11.313,11.312L83.313,408h313.375l71.403,71.403C473.61,477.933,477.933,473.612,479.404,468.091z
			 M392,392H88V88h304V392z"/>
	</g>
</g>
<g>
</g>
<g>
</g>
<g>
</g>
<g>
</g>
<g>
</g>
<g>
</g>
<g>
</g>
<g>
</g>
<g>
</g>
<g>
</g>
<g>
</g>
<g>
</g>
<g>
</g>
<g>
</g>
<g>
</g>
</svg>
