<svg width="27" height="27" viewBox="0 0 27 27" fill="none" xmlns="http://www.w3.org/2000/svg">
<path d="M21.718 20.5439C20.1003 20.5439 18.7832 21.8611 18.7832 23.4787C18.7832 25.0963 20.1003 26.4135 21.718 26.4135C23.3357 26.4135 24.6527 25.0964 24.6527 23.4787C24.6527 21.861 23.3356 20.5439 21.718 20.5439ZM21.718 25.2396C20.7471 25.2396 19.9571 24.4496 19.9571 23.4787C19.9571 22.5079 20.7471 21.7178 21.718 21.7178C22.6888 21.7178 23.4788 22.5079 23.4788 23.4787C23.4788 24.4496 22.6888 25.2396 21.718 25.2396Z" fill="white"/>
<path d="M9.97774 20.5439C8.3601 20.5439 7.04297 21.8611 7.04297 23.4787C7.04297 25.0963 8.3601 26.4135 9.97774 26.4135C11.5954 26.4135 12.9125 25.0964 12.9125 23.4788C12.9125 21.8611 11.5954 20.5439 9.97774 20.5439ZM9.97774 25.2396C9.00689 25.2396 8.21687 24.4496 8.21687 23.4787C8.21687 22.5079 9.00689 21.7178 9.97774 21.7178C10.9486 21.7178 11.7386 22.5079 11.7386 23.4787C11.7386 24.4496 10.9486 25.2396 9.97774 25.2396Z" fill="white"/>
<path d="M24.0652 18.1956H10.5171C9.12363 18.1956 7.91336 17.2037 7.63982 15.8361L4.68392 1.05883C4.62873 0.784132 4.38809 0.586914 4.10872 0.586914H0.586976C0.262975 0.586914 0 0.849889 0 1.17389C0 1.49789 0.262975 1.76087 0.586976 1.76087H3.6274L6.48821 16.0673C6.87092 17.9808 8.56604 19.3696 10.5171 19.3696H24.0652C24.3892 19.3696 24.6522 19.1066 24.6522 18.7826C24.6522 18.4586 24.3892 18.1956 24.0652 18.1956Z" fill="white"/>
<path d="M26.853 4.30677C26.7414 4.18114 26.5818 4.1084 26.4128 4.1084H5.28229C4.95829 4.1084 4.69531 4.37137 4.69531 4.69537C4.69531 5.01937 4.95829 5.28229 5.28229 5.28229H25.7483L24.9136 11.9572C24.8033 12.8364 24.052 13.4997 23.1657 13.4997H7.04316C6.71916 13.4997 6.45618 13.7627 6.45618 14.0867C6.45618 14.4107 6.71916 14.6736 7.04316 14.6736H23.1657C24.6425 14.6736 25.8951 13.569 26.0782 12.1028L26.995 4.76812C27.0161 4.60139 26.9645 4.43234 26.853 4.30677Z" fill="white"/>
<g clip-path="url(#clip0)">
<path d="M10.9298 7.5817C10.9298 7.25485 10.9298 5.77832 10.9298 5.77832H10.6907H10.5492H10.3102C10.3102 5.77832 10.3102 7.25485 10.3102 7.5817C10.3102 7.90855 9.70508 8.30533 9.70508 8.77117C9.70508 9.23689 9.70508 12.6061 9.70508 12.7249C9.70508 12.8438 9.78336 13.0419 9.95875 13.0419C10.0782 13.0419 10.3723 13.0419 10.5494 13.0419C10.633 13.0419 10.691 13.0419 10.691 13.0419C10.868 13.0419 11.1621 13.0419 11.2815 13.0419C11.457 13.0419 11.5354 12.8437 11.5354 12.7249C11.5354 12.6061 11.5354 9.23688 11.5354 8.77117C11.5354 8.30533 10.9298 7.90876 10.9298 7.5817ZM10.444 8.11126C10.4048 8.16558 10.361 8.23407 10.3134 8.31309C10.2653 8.39233 10.2197 8.48467 10.1733 8.58485C10.1556 8.63605 10.1375 8.6897 10.1223 8.74345C10.1218 8.80042 10.104 8.84243 10.1117 8.91391C10.1164 9.04647 10.1215 9.1859 10.1268 9.33021C10.1362 9.61892 10.1379 9.92706 10.1403 10.2349C10.1397 10.8509 10.1213 11.4672 10.0929 11.9291C10.0805 12.1601 10.0601 12.3525 10.0505 12.4873C10.0387 12.6221 10.0289 12.6992 10.0289 12.6992C10.0289 12.6992 10.019 12.6221 10.0072 12.4873C9.99755 12.3525 9.97713 12.1601 9.96469 11.9291C9.93632 11.4672 9.91796 10.8509 9.91732 10.2349C9.9195 9.92704 9.92125 9.61892 9.93085 9.33021C9.93609 9.18592 9.94122 9.04647 9.94592 8.91391C9.94363 8.85241 9.96644 8.76884 9.97944 8.70233C10.0047 8.63972 10.0326 8.58162 10.0592 8.52689C10.0917 8.47656 10.1223 8.42835 10.1518 8.38258C10.1853 8.3408 10.2171 8.30134 10.2468 8.26387C10.3085 8.1916 10.3634 8.13053 10.4114 8.08287C10.5061 7.98668 10.5669 7.93946 10.5669 7.93946C10.5669 7.93946 10.5195 8.00097 10.444 8.11126Z" fill="white"/>
</g>
<g clip-path="url(#clip1)">
<path d="M16.213 7.5817C16.213 7.25485 16.213 5.77832 16.213 5.77832H15.9739H15.8324H15.5934C15.5934 5.77832 15.5934 7.25485 15.5934 7.5817C15.5934 7.90855 14.9883 8.30533 14.9883 8.77117C14.9883 9.23689 14.9883 12.6061 14.9883 12.7249C14.9883 12.8438 15.0666 13.0419 15.242 13.0419C15.3614 13.0419 15.6556 13.0419 15.8326 13.0419C15.9162 13.0419 15.9742 13.0419 15.9742 13.0419C16.1512 13.0419 16.4453 13.0419 16.5647 13.0419C16.7402 13.0419 16.8186 12.8437 16.8186 12.7249C16.8186 12.6061 16.8186 9.23688 16.8186 8.77117C16.8186 8.30533 16.213 7.90876 16.213 7.5817ZM15.7272 8.11126C15.688 8.16558 15.6442 8.23407 15.5966 8.31309C15.5485 8.39233 15.5029 8.48467 15.4565 8.58485C15.4388 8.63605 15.4207 8.6897 15.4055 8.74345C15.405 8.80042 15.3872 8.84243 15.3949 8.91391C15.3996 9.04647 15.4047 9.1859 15.41 9.33021C15.4194 9.61892 15.4211 9.92706 15.4235 10.2349C15.4229 10.8509 15.4045 11.4672 15.3762 11.9291C15.3637 12.1601 15.3433 12.3525 15.3337 12.4873C15.3219 12.6221 15.3121 12.6992 15.3121 12.6992C15.3121 12.6992 15.3022 12.6221 15.2904 12.4873C15.2808 12.3525 15.2603 12.1601 15.2479 11.9291C15.2195 11.4672 15.2012 10.8509 15.2005 10.2349C15.2027 9.92704 15.2045 9.61892 15.2141 9.33021C15.2193 9.18592 15.2244 9.04647 15.2291 8.91391C15.2268 8.85241 15.2496 8.76884 15.2626 8.70233C15.2879 8.63972 15.3158 8.58162 15.3424 8.52689C15.3749 8.47656 15.4055 8.42835 15.435 8.38258C15.4685 8.3408 15.5003 8.30134 15.53 8.26387C15.5917 8.1916 15.6466 8.13053 15.6946 8.08287C15.7893 7.98668 15.8501 7.93946 15.8501 7.93946C15.8501 7.93946 15.8027 8.00097 15.7272 8.11126Z" fill="white"/>
</g>
<g clip-path="url(#clip2)">
<path d="M21.6678 7.65148C21.7189 7.32865 21.9499 5.8703 21.9499 5.8703L21.7138 5.8329L21.5739 5.81076L21.3379 5.77338C21.3379 5.77338 21.107 7.23172 21.0558 7.55455C21.0047 7.87738 20.3449 8.17461 20.272 8.63471C20.1992 9.09471 19.6721 12.4225 19.6535 12.5398C19.635 12.6572 19.6813 12.8651 19.8545 12.8926C19.9724 12.9112 20.263 12.9573 20.4379 12.985C20.5205 12.998 20.5777 13.0071 20.5777 13.0071C20.7526 13.0348 21.043 13.0808 21.161 13.0995C21.3343 13.1269 21.4427 12.9435 21.4613 12.8261C21.4799 12.7088 22.007 9.38101 22.0798 8.92104C22.1527 8.46093 21.6166 7.97451 21.6678 7.65148ZM21.1051 8.09852C21.0579 8.14604 21.0039 8.20684 20.9446 8.27744C20.8846 8.34817 20.8251 8.43224 20.7636 8.52393C20.7382 8.57174 20.7119 8.62189 20.6885 8.6726C20.679 8.72878 20.6549 8.76749 20.6514 8.83931C20.6353 8.97097 20.6185 9.10949 20.6011 9.25284C20.5652 9.53947 20.5187 9.84408 20.4729 10.1486C20.3759 10.7569 20.2614 11.3627 20.1611 11.8145C20.1127 12.0407 20.0625 12.2275 20.0319 12.3591C19.9992 12.4904 19.9774 12.565 19.9774 12.565C19.9774 12.565 19.9796 12.4873 19.9891 12.3524C20.0007 12.2177 20.0106 12.0245 20.0345 11.7944C20.0787 11.3337 20.157 10.7222 20.2527 10.1137C20.303 9.8099 20.3529 9.50585 20.4076 9.22219C20.4353 9.08049 20.4622 8.94357 20.4876 8.81338C20.495 8.75227 20.5306 8.6733 20.5538 8.60965C20.5885 8.55175 20.6252 8.49874 20.6601 8.44884C20.7 8.40421 20.7378 8.36139 20.7741 8.32079C20.8137 8.28476 20.8512 8.25076 20.8864 8.2184C20.9587 8.15668 21.0225 8.10495 21.0773 8.06538C21.1859 7.98519 21.2534 7.94806 21.2534 7.94806C21.2534 7.94806 21.1969 8.0014 21.1051 8.09852Z" fill="white"/>
</g>
<defs>
<clipPath id="clip0">
<rect width="7.15354" height="7.2636" fill="white" transform="translate(7.04297 5.77832)"/>
</clipPath>
<clipPath id="clip1">
<rect width="7.15354" height="7.2636" fill="white" transform="translate(12.3262 5.77832)"/>
</clipPath>
<clipPath id="clip2">
<rect width="7.15355" height="7.2636" fill="white" transform="translate(18.1113 5.2627) rotate(9.00001)"/>
</clipPath>
</defs>
</svg>
