<svg width="30" height="34" viewBox="0 0 30 34" fill="none" xmlns="http://www.w3.org/2000/svg">
<path d="M29.6334 31.342L21.1023 22.0399C22.7548 19.8143 23.7498 16.9862 23.7498 13.9059C23.7498 6.76687 18.4223 0.958008 11.8748 0.958008C5.32741 0.958008 0 6.76681 0 13.9059C0 21.0449 5.32747 26.8538 11.8749 26.8538C14.6999 26.8538 17.2936 25.7689 19.3348 23.9671L27.866 33.2692C28.1097 33.5349 28.4297 33.6685 28.7497 33.6685C29.0698 33.6685 29.3898 33.5349 29.6335 33.2692C30.1222 32.7363 30.1222 31.8749 29.6334 31.342ZM11.8749 24.1279C6.70494 24.1279 2.5 19.543 2.5 13.9059C2.5 8.26874 6.70494 3.68384 11.8749 3.68384C17.0449 3.68384 21.2498 8.26874 21.2498 13.9059C21.2498 19.543 17.0448 24.1279 11.8749 24.1279Z" fill="white"/>
</svg>
