<?xml version="1.0" standalone="no"?>
<!DOCTYPE svg PUBLIC "-//W3C//DTD SVG 20010904//EN"
 "http://www.w3.org/TR/2001/REC-SVG-20010904/DTD/svg10.dtd">
<svg version="1.0" xmlns="http://www.w3.org/2000/svg"
 width="500.000000pt" height="500.000000pt" viewBox="0 0 500.000000 500.000000"
 preserveAspectRatio="xMidYMid meet">

<g transform="translate(0.000000,500.000000) scale(0.100000,-0.100000)"
fill="#000000" stroke="none">
<path d="M2754 3703 c11 -11 76 -13 76 -2 0 5 -19 9 -42 9 -23 0 -38 -3 -34
-7z"/>
<path d="M2850 3692 c0 -4 12 -12 26 -19 17 -8 24 -8 22 -1 -5 13 -48 31 -48
20z"/>
<path d="M2722 3648 c3 -30 1 -33 -27 -33 -21 -1 -31 -6 -34 -20 -3 -15 0 -17
10 -8 8 6 23 10 34 9 25 -2 67 -30 59 -39 -4 -4 -1 -13 5 -21 9 -10 9 -16 1
-21 -6 -4 -8 -15 -5 -25 5 -15 2 -17 -16 -13 -18 5 -21 3 -16 -10 7 -20 -4
-22 -21 -5 -8 8 -15 8 -26 -1 -8 -7 -20 -10 -26 -6 -5 3 -10 3 -10 0 0 -12 25
-30 59 -42 30 -11 34 -10 38 8 3 11 17 25 30 30 18 7 23 14 18 28 -3 11 -1 22
5 26 8 5 7 12 -3 23 -8 10 -12 25 -8 35 6 17 8 17 34 -3 29 -23 35 -48 15 -68
-9 -9 -9 -12 0 -12 7 0 12 -11 12 -25 0 -14 -4 -25 -9 -25 -5 0 -7 -9 -4 -20
6 -22 23 -27 23 -7 0 7 26 22 58 32 l57 19 -35 7 c-19 3 -29 7 -22 8 6 0 12 8
12 17 0 14 3 14 15 4 26 -22 18 14 -9 39 -18 17 -30 20 -51 15 -20 -5 -26 -4
-21 5 4 6 -3 15 -17 20 -14 6 -28 15 -32 21 -4 7 -19 9 -36 5 -25 -6 -29 -3
-35 21 -4 15 -2 35 5 46 9 15 8 18 -9 18 -17 0 -20 -6 -18 -32z m160 -158 c-6
-16 -11 -20 -16 -11 -4 6 -2 19 5 27 16 20 21 12 11 -16z"/>
<path d="M2908 3641 c-14 -13 -15 -20 -6 -29 9 -9 6 -12 -15 -12 -15 0 -27 -4
-27 -10 0 -5 7 -10 16 -10 24 0 55 20 48 31 -3 5 -1 16 6 24 17 20 -2 25 -22
6z"/>
<path d="M2332 3623 c35 -6 46 -33 13 -33 -14 0 -25 5 -25 12 0 6 -3 9 -6 5
-3 -3 -3 -15 1 -26 5 -17 12 -20 33 -15 15 4 32 10 37 14 6 5 16 2 23 -6 7 -8
8 -14 3 -14 -5 0 -22 -5 -38 -11 -22 -8 -25 -12 -13 -20 12 -8 10 -10 -7 -6
-18 4 -23 1 -23 -13 0 -11 6 -23 13 -27 6 -4 21 -19 32 -33 15 -19 16 -22 3
-11 -11 8 -18 9 -18 3 0 -6 8 -17 18 -24 11 -7 24 -23 31 -36 11 -20 10 -27
-5 -43 -9 -10 -12 -19 -7 -19 6 0 16 7 23 15 12 15 8 44 -17 103 -4 10 7 12
43 10 40 -2 48 -6 46 -20 -2 -14 4 -18 25 -19 25 0 26 -1 7 -9 -23 -9 -38 -36
-28 -52 4 -6 0 -14 -7 -19 -9 -6 0 -8 26 -8 22 1 32 3 23 6 -21 5 -24 23 -5
23 8 0 7 4 -3 11 -13 9 -13 10 0 6 20 -5 51 -88 39 -103 -10 -13 -1 -74 12
-74 4 0 11 -9 14 -20 4 -14 15 -20 33 -19 16 0 21 3 12 6 -40 16 -62 63 -50
108 1 6 2 13 1 18 0 4 11 7 25 7 28 0 74 -41 74 -66 0 -7 7 -14 16 -14 9 0 14
-6 11 -12 -2 -7 -13 -12 -25 -11 -11 1 -23 -5 -26 -14 -9 -23 -3 -25 31 -8 37
18 47 47 24 68 -60 59 -60 57 3 57 50 0 57 2 52 16 -4 9 -2 22 3 28 21 25 5
49 -40 61 -79 21 -129 40 -129 47 0 5 -17 8 -37 8 -29 0 -34 3 -23 10 11 8 8
9 -11 5 -19 -5 -28 -2 -32 9 -4 9 -14 16 -23 16 -13 0 -14 3 -4 15 16 19 11
19 -33 0 -21 -9 -38 -11 -42 -6 -3 5 7 11 22 13 37 4 55 50 30 76 -16 15 -19
15 -27 2 -9 -13 -10 -13 -10 0 0 18 -54 41 -91 39 -23 -2 -23 -2 3 -6z m128
-63 c0 -5 -4 -10 -10 -10 -5 0 -10 5 -10 10 0 6 5 10 10 10 6 0 10 -4 10 -10z
m-20 -30 c0 -5 -5 -10 -11 -10 -5 0 -7 5 -4 10 3 6 8 10 11 10 2 0 4 -4 4 -10z
m-50 -41 c0 -13 -13 -11 -35 5 -18 13 -18 14 8 9 15 -3 27 -9 27 -14z m93 -16
c-13 -2 -35 -2 -50 0 -16 2 -5 4 22 4 28 0 40 -2 28 -4z m57 -43 c0 -5 -4 -10
-10 -10 -5 0 -10 5 -10 10 0 6 5 10 10 10 6 0 10 -4 10 -10z m47 -12 c-3 -8
-6 -5 -6 6 -1 11 2 17 5 13 3 -3 4 -12 1 -19z m176 -57 c10 -38 -16 -51 -99
-50 -54 0 -72 3 -58 9 35 14 37 37 4 42 -16 3 -32 1 -34 -4 -2 -5 -3 -3 -2 4
2 7 14 13 29 13 30 1 63 -20 47 -30 -17 -11 -1 -25 28 -24 23 2 24 2 5 6 -14
3 -20 9 -16 19 3 8 0 20 -6 28 -17 20 -5 24 48 13 33 -6 51 -15 54 -26z m-216
23 c-3 -3 -12 -4 -19 -1 -8 3 -5 6 6 6 11 1 17 -2 13 -5z"/>
<path d="M1830 3610 c0 -13 30 -13 50 0 11 7 7 10 -17 10 -18 0 -33 -4 -33
-10z"/>
<path d="M2620 3585 c0 -14 5 -25 10 -25 6 0 10 11 10 25 0 14 -4 25 -10 25
-5 0 -10 -11 -10 -25z"/>
<path d="M1900 3591 c0 -5 7 -14 15 -21 16 -14 18 -10 9 14 -6 17 -24 22 -24
7z"/>
<path d="M1771 3567 c-8 -11 -9 -17 -1 -22 6 -4 8 -15 5 -26 -5 -15 -1 -19 19
-19 14 0 26 4 26 10 0 5 -7 7 -16 3 -13 -5 -15 -2 -10 15 4 12 3 29 -2 37 -7
14 -10 14 -21 2z"/>
<path d="M3518 3560 c12 -11 29 -20 38 -20 13 0 11 5 -9 20 -14 11 -31 20 -38
20 -7 0 -4 -8 9 -20z"/>
<path d="M3060 3560 c-8 -4 -26 -13 -40 -18 -24 -10 -24 -11 8 -11 18 -1 40 5
48 13 16 17 6 27 -16 16z"/>
<path d="M3323 3556 c4 -10 -2 -16 -21 -18 -22 -2 -26 -8 -24 -27 2 -20 0 -22
-13 -11 -12 10 -15 10 -15 -3 0 -8 -7 -20 -15 -27 -8 -7 -15 -16 -15 -21 0
-14 17 -11 34 7 15 14 16 14 16 -4 0 -13 -12 -24 -37 -35 l-38 -15 35 6 c34 5
35 5 16 -13 -15 -16 -37 -20 -115 -22 l-96 -3 48 18 c38 14 45 20 35 30 -9 9
-9 12 0 12 7 0 17 -11 22 -25 10 -26 24 -32 35 -15 3 6 1 10 -5 10 -6 0 1 11
16 25 15 14 22 25 16 25 -6 0 -18 3 -28 7 -13 5 -16 3 -11 -10 8 -20 6 -21
-28 -5 -32 15 -45 56 -21 73 15 12 15 13 -3 18 -16 4 -21 -2 -26 -32 -3 -20
-1 -49 4 -64 12 -31 -1 -44 -22 -22 -9 8 -23 15 -31 15 -9 0 -18 11 -22 25 -3
14 -10 25 -16 25 -5 0 -6 5 -3 10 3 6 2 10 -4 10 -19 0 -24 -23 -7 -32 9 -5
16 -16 16 -24 0 -8 11 -19 24 -24 24 -9 44 -30 29 -30 -29 0 -83 23 -83 35 0
8 -5 15 -11 15 -5 0 -7 -5 -3 -11 4 -7 1 -10 -7 -7 -17 7 -51 -10 -44 -21 2
-5 -5 -12 -18 -16 l-22 -8 22 -4 c12 -2 27 -11 33 -19 17 -19 34 -18 26 2 -6
15 1 16 61 8 38 -4 105 -7 151 -6 52 2 82 -1 82 -7 0 -12 55 -43 62 -35 3 2
11 -2 18 -11 7 -8 18 -15 26 -15 28 0 176 -54 209 -76 20 -13 49 -31 66 -40
23 -12 30 -21 27 -38 -6 -31 22 -77 62 -99 31 -17 35 -17 46 -3 6 9 19 16 28
16 9 0 16 4 16 9 0 5 3 16 6 24 3 8 -2 17 -12 21 -24 9 -28 2 -14 -26 10 -19
10 -21 -1 -10 -18 17 -30 15 -27 -4 2 -10 -3 -19 -9 -21 -7 -3 -13 2 -13 11 0
8 -5 18 -12 22 -7 4 -8 3 -4 -4 5 -8 0 -12 -13 -12 -25 0 -26 8 -4 32 15 17
15 18 -10 18 -58 0 -20 49 40 51 27 2 26 2 -5 8 -27 5 -37 14 -53 50 l-19 43
27 -17 28 -18 -24 27 c-14 14 -30 26 -37 26 -7 0 -16 5 -20 11 -4 8 1 9 17 4
19 -5 21 -4 9 4 -19 13 -63 14 -55 2 7 -12 -115 27 -130 41 -6 6 -4 7 8 3 9
-4 17 -3 17 2 0 16 -49 57 -57 48 -5 -4 -2 -10 5 -12 18 -7 15 -23 -4 -23 -13
0 -14 -3 -5 -14 9 -11 5 -15 -20 -20 -19 -4 -38 -1 -46 6 -11 9 -17 9 -24 -3
-8 -12 -10 -12 -18 0 -5 7 -14 10 -20 7 -6 -4 -11 -3 -11 3 0 6 -6 8 -14 5 -7
-3 -16 3 -20 12 -12 31 42 73 102 81 28 3 57 12 63 20 18 21 5 25 -27 8 -39
-20 -42 -19 -37 8 3 14 -2 31 -13 42 -17 16 -17 17 1 13 11 -2 26 -14 33 -28
l14 -25 -6 27 c-5 21 -2 28 14 33 11 3 20 12 20 20 0 11 -5 11 -30 -1 -30 -15
-56 -11 -45 7 4 5 -1 9 -10 9 -11 0 -15 -5 -12 -14z m-9 -41 c-4 -8 -10 -12
-15 -9 -14 8 -10 24 6 24 9 0 12 -6 9 -15z m26 -24 c0 -12 -20 -25 -27 -18 -7
7 6 27 18 27 5 0 9 -4 9 -9z m-23 -37 c-3 -3 -12 -4 -19 -1 -8 3 -5 6 6 6 11
1 17 -2 13 -5z m-309 -71 c-16 -2 -40 -2 -55 0 -16 2 -3 4 27 4 30 0 43 -2 28
-4z m557 -94 c47 -15 72 -34 91 -71 16 -31 19 -62 4 -38 -7 10 -10 11 -10 2 0
-8 -15 -2 -40 14 -22 15 -37 31 -33 37 3 5 2 7 -4 4 -6 -4 -28 2 -49 12 -22
11 -57 22 -78 26 -26 5 -34 10 -24 16 7 5 9 9 3 10 -5 1 4 4 20 8 17 4 41 4
55 0 14 -4 43 -13 65 -20z"/>
<path d="M3460 3560 c-13 -8 -12 -10 3 -10 9 0 17 5 17 10 0 12 -1 12 -20 0z"/>
<path d="M2026 3553 c-3 -4 -6 -13 -6 -22 0 -11 3 -12 11 -4 8 8 16 6 30 -8
10 -10 19 -23 19 -29 0 -5 8 -13 17 -19 15 -8 15 -13 4 -37 -11 -24 -10 -26 3
-14 20 16 21 54 1 70 -8 7 -15 19 -15 26 0 8 -7 14 -15 14 -8 0 -15 4 -15 9 0
11 -26 22 -34 14z"/>
<path d="M2172 3535 c5 -25 -7 -35 -15 -12 -2 6 -8 8 -13 4 -5 -5 0 -16 11
-26 31 -27 44 -55 33 -74 -6 -12 -5 -17 4 -17 9 0 9 -3 -2 -10 -11 -7 -5 -8
20 -4 35 7 74 37 63 48 -10 10 -25 7 -18 -3 6 -10 -25 -31 -46 -31 -8 0 -5 8
6 20 18 20 18 21 -1 35 -21 16 -13 20 14 6 9 -4 38 -15 64 -23 43 -14 49 -14
60 0 11 13 10 15 -9 10 -12 -3 -30 0 -40 9 -17 13 -16 14 6 7 17 -4 21 -3 16
6 -4 6 -16 9 -28 6 -12 -3 -32 4 -52 20 -17 13 -39 24 -48 24 -10 0 -14 5 -11
15 4 8 1 15 -6 15 -8 0 -11 -9 -8 -25z"/>
<path d="M2592 3548 c2 -6 10 -14 16 -16 7 -2 10 2 6 12 -7 18 -28 22 -22 4z"/>
<path d="M1963 3535 c-3 -9 -19 -30 -36 -46 -35 -35 -26 -60 14 -38 14 7 19
14 12 16 -9 3 -5 15 12 37 14 18 25 36 25 39 0 14 -21 7 -27 -8z"/>
<path d="M3152 3519 c2 -7 10 -15 17 -17 8 -3 12 1 9 9 -2 7 -10 15 -17 17 -8
3 -12 -1 -9 -9z"/>
<path d="M3545 3510 c3 -5 10 -10 16 -10 5 0 9 5 9 10 0 6 -7 10 -16 10 -8 0
-12 -4 -9 -10z"/>
<path d="M3658 3513 c-16 -2 -28 -9 -28 -14 0 -12 37 -12 44 0 3 5 15 7 26 4
11 -3 20 0 20 6 0 11 -11 12 -62 4z"/>
<path d="M3186 3494 c-27 -19 -13 -30 14 -11 12 8 18 17 13 20 -4 3 -17 -1
-27 -9z"/>
<path d="M1828 3493 c-10 -2 -18 -9 -18 -15 0 -5 6 -8 14 -5 7 3 18 1 24 -5 6
-6 15 -7 21 -3 8 4 7 11 -3 21 -8 8 -16 13 -18 13 -2 -1 -11 -3 -20 -6z"/>
<path d="M2140 3485 c7 -8 17 -15 22 -15 6 0 5 7 -2 15 -7 8 -17 15 -22 15 -6
0 -5 -7 2 -15z"/>
<path d="M2595 3490 c3 -5 8 -10 11 -10 2 0 4 5 4 10 0 6 -5 10 -11 10 -5 0
-7 -4 -4 -10z"/>
<path d="M2636 3491 c-4 -7 -5 -15 -2 -18 9 -9 19 4 14 18 -4 11 -6 11 -12 0z"/>
<path d="M3557 3482 c-9 -2 -14 -8 -11 -14 5 -7 0 -9 -14 -6 -21 6 -38 -15
-26 -33 3 -5 -4 -9 -15 -9 -10 0 -22 6 -25 13 -3 6 -5 3 -3 -8 1 -13 12 -22
29 -25 15 -3 42 -19 60 -35 24 -22 42 -30 66 -29 46 1 49 10 7 18 -77 15 -134
70 -85 83 11 3 20 11 20 18 0 7 6 15 13 18 18 6 5 14 -16 9z"/>
<path d="M3730 3480 c0 -5 10 -10 23 -10 18 0 19 2 7 10 -19 13 -30 13 -30 0z"/>
<path d="M1680 3450 c0 -12 -7 -20 -16 -20 -11 0 -15 -6 -11 -20 3 -11 1 -20
-5 -20 -6 0 -7 -7 -4 -15 20 -50 20 -49 -1 -29 -11 10 -17 25 -15 33 4 10 -1
11 -19 5 -13 -4 -40 -8 -59 -7 -25 0 -28 -1 -10 -5 23 -4 24 -5 5 -12 -14 -6
-5 -8 27 -7 54 1 67 -7 52 -31 -15 -23 -100 -37 -133 -22 -20 9 -27 8 -40 -6
-15 -15 -14 -16 12 -11 21 3 30 0 34 -12 3 -9 9 -26 15 -37 8 -18 6 -26 -11
-43 -12 -12 -21 -25 -21 -30 0 -5 -11 -8 -25 -7 -14 0 -25 7 -25 14 0 6 -6 12
-14 12 -7 0 -16 14 -20 32 -5 24 -9 29 -18 20 -8 -8 -8 -15 0 -25 7 -8 8 -17
4 -21 -4 -4 2 -14 13 -22 20 -15 20 -15 1 -30 -11 -8 -27 -14 -36 -14 -9 0
-25 -7 -36 -15 -23 -17 -43 -20 -26 -3 13 13 17 88 4 88 -4 0 -6 -16 -4 -37
l5 -36 -37 22 c-32 20 -39 21 -71 10 -31 -12 -39 -11 -67 5 l-31 19 7 -27 c5
-22 3 -26 -16 -26 -17 0 -19 -3 -10 -12 16 -16 15 -31 0 -25 -7 2 -26 -5 -41
-16 -21 -14 -31 -17 -40 -8 -14 14 -47 15 -47 1 0 -5 7 -10 15 -10 8 0 15 -5
15 -11 0 -13 69 -3 85 12 5 5 18 9 28 9 14 0 18 5 14 19 -2 10 3 25 12 33 18
15 87 18 109 4 7 -4 16 -5 20 -1 3 3 0 10 -8 15 -8 6 -10 10 -4 10 7 0 22 -8
34 -18 21 -17 21 -19 5 -35 -13 -14 -14 -17 -2 -17 8 0 20 -7 28 -16 11 -13 9
-14 -17 -8 -16 4 -30 11 -32 16 -7 17 -24 7 -19 -12 3 -11 1 -20 -3 -20 -5 0
-17 -3 -27 -7 -16 -6 -17 -5 -3 12 14 17 14 18 -10 5 -14 -8 -34 -14 -45 -15
-76 -5 -81 -6 -60 -15 11 -4 32 -6 47 -3 32 6 61 -17 52 -41 -3 -9 -1 -16 5
-16 8 0 8 -5 -1 -19 -6 -10 -18 -17 -25 -14 -7 3 -13 -2 -13 -11 0 -9 -4 -16
-10 -16 -5 0 -10 8 -10 17 0 13 -3 14 -12 5 -18 -18 -58 -15 -58 5 0 13 -3 14
-12 5 -9 -9 -8 -16 5 -30 10 -11 16 -33 16 -53 -1 -21 -3 -27 -6 -14 -3 11 -9
25 -13 30 -4 6 -11 25 -15 43 -4 18 -13 45 -21 60 -12 23 -14 24 -20 8 -4 -11
-2 -21 7 -26 7 -5 10 -12 7 -15 -11 -12 -28 5 -29 28 0 18 -4 15 -16 -13 -8
-19 -20 -38 -26 -42 -6 -4 -8 -11 -3 -15 4 -4 16 3 27 16 19 23 19 23 19 2 0
-12 -4 -21 -10 -21 -5 0 -10 -5 -10 -11 0 -6 7 -8 16 -5 8 3 12 2 9 -4 -3 -6
-2 -10 4 -10 5 0 13 5 16 10 3 6 11 10 17 10 6 0 1 -11 -12 -25 l-24 -26 -17
22 c-22 29 -49 33 -49 8 0 -11 7 -22 15 -25 24 -10 17 -22 -10 -16 -15 2 -25
0 -25 -7 0 -6 8 -11 17 -11 13 0 14 -3 6 -11 -9 -9 -8 -15 2 -25 10 -10 12
-31 9 -71 -5 -62 -54 -233 -66 -233 -12 0 -10 28 2 35 6 3 10 11 10 18 0 8 -3
8 -12 -1 -16 -16 -28 -15 -28 1 0 16 -40 51 -48 42 -4 -4 2 -13 12 -21 11 -8
21 -20 22 -27 1 -6 5 -20 9 -29 5 -13 2 -18 -9 -18 -9 0 -16 -7 -16 -15 0 -11
-8 -14 -29 -10 -43 7 -45 -8 -4 -30 34 -19 35 -19 46 0 11 19 12 18 17 -10 3
-19 11 -30 22 -30 9 0 20 -4 24 -8 4 -4 16 -7 26 -7 16 0 15 3 -8 23 l-27 23
32 27 c18 15 29 31 26 37 -3 5 3 10 14 10 23 0 27 -10 11 -26 -12 -12 -2 -54
13 -54 18 0 66 51 61 65 -3 7 4 15 15 18 17 4 21 13 21 45 0 24 -6 45 -16 53
-14 11 -19 9 -35 -11 -10 -14 -19 -20 -19 -14 0 5 7 19 15 30 8 10 15 26 15
34 0 8 10 26 21 40 l21 25 -7 -28 c-4 -22 0 -34 22 -57 15 -16 31 -26 36 -23
5 3 20 0 33 -8 21 -11 26 -10 38 6 8 11 20 16 29 12 20 -8 29 4 17 23 -5 9 -5
19 2 27 6 8 8 16 5 19 -8 8 -37 -21 -37 -35 0 -6 -6 -11 -14 -11 -8 0 -17 -7
-20 -16 -6 -15 -8 -15 -25 0 -13 12 -21 14 -26 6 -9 -15 -25 -2 -25 22 0 17
-2 18 -15 8 -19 -16 -19 -11 5 42 26 59 37 67 75 54 25 -9 30 -16 28 -38 -1
-18 3 -28 11 -28 8 0 12 9 11 23 -1 12 -3 28 -4 35 0 6 -6 12 -12 12 -6 0 -17
6 -24 14 -12 11 -10 17 10 36 21 20 25 21 31 7 3 -9 14 -19 25 -22 11 -4 17
-10 14 -15 -3 -5 2 -26 10 -47 l16 -38 20 24 c16 19 17 26 7 32 -10 7 -10 9 1
9 8 0 24 9 36 20 22 21 55 19 55 -4 0 -6 11 -16 24 -22 20 -9 33 -8 65 7 23
10 41 25 41 34 0 8 5 15 10 15 15 0 12 30 -2 30 -7 0 -4 7 7 16 19 14 19 15
-3 20 -34 9 -25 31 11 25 14 -2 7 28 -9 37 -13 7 -14 11 -4 17 8 5 18 1 26 -9
9 -13 13 -14 17 -4 4 8 6 7 6 -4 1 -10 6 -18 11 -18 12 0 13 10 0 30 -6 9 -5
19 2 28 13 15 18 63 6 56 -4 -3 -8 -13 -8 -22 0 -11 -22 -27 -62 -46 -81 -38
-86 -40 -68 -24 8 7 14 23 12 36 -4 23 -16 29 -27 12 -10 -17 -25 -11 -25 10
0 14 -6 20 -22 19 -17 -1 -19 -2 -5 -6 10 -3 17 -14 17 -29 0 -21 4 -24 20
-19 24 7 26 -7 5 -25 -24 -20 -18 -30 20 -30 25 0 33 -4 29 -14 -3 -8 4 -16
18 -19 22 -6 22 -7 4 -20 -18 -13 -18 -14 -1 -21 16 -6 13 -11 -20 -41 -27
-25 -41 -32 -50 -25 -6 5 -15 7 -19 3 -4 -4 -9 3 -13 15 -3 12 -9 22 -13 22
-5 0 -6 9 -3 20 3 11 1 20 -4 20 -19 0 -12 46 10 62 l22 18 -28 0 c-16 0 -38
-5 -49 -11 -11 -6 -35 -11 -54 -11 -22 0 -35 -6 -39 -16 -5 -17 -48 -42 -73
-42 -7 0 -11 -4 -8 -9 3 -5 -25 -38 -62 -73 -79 -73 -141 -171 -125 -197 11
-18 -5 -51 -25 -51 -11 0 -25 30 -17 38 3 3 5 0 5 -6 0 -7 5 -12 10 -12 14 0
12 28 -2 32 -8 3 -4 12 10 26 12 12 22 27 22 33 0 19 -30 -12 -51 -52 -32 -64
-39 -53 -13 21 15 44 24 92 24 129 0 58 1 60 25 57 14 -1 28 -6 32 -9 13 -14
23 -6 23 18 0 19 -8 30 -32 41 -31 14 -12 14 22 0 11 -5 16 0 17 14 1 12 -5
20 -15 21 -14 0 -14 2 -2 6 8 3 18 11 22 17 4 6 8 -24 8 -67 0 -67 -4 -83 -25
-115 -14 -20 -25 -41 -25 -47 0 -5 7 2 17 15 9 14 26 36 39 50 21 23 26 46 37
162 3 34 13 44 30 29 17 -14 77 13 77 35 0 10 7 13 28 8 46 -10 53 -14 47 -24
-3 -5 1 -10 9 -10 8 0 18 9 21 20 3 11 11 20 17 20 5 0 8 -7 4 -15 -8 -22 13
-18 33 7 18 22 17 68 -1 68 -7 0 -6 5 1 14 6 7 23 12 39 9 23 -3 24 -2 7 6
-11 5 -15 10 -8 10 6 1 18 7 25 14 19 19 78 -5 78 -32 0 -21 17 -37 27 -27 4
4 1 12 -5 18 -17 17 -15 31 3 25 24 -10 24 7 -1 31 -13 12 -24 18 -24 13 0 -7
-19 -9 -50 -6 -40 4 -50 2 -50 -10 0 -22 -13 -19 -39 9 l-23 25 33 3 c25 2 37
10 47 30 11 23 16 26 52 21 33 -5 40 -3 40 11 0 9 7 19 15 22 17 7 20 46 5 74
-9 16 -6 21 15 26 14 3 32 3 42 0 9 -4 20 -1 24 6 6 9 13 9 32 -1 23 -12 24
-14 8 -30 -9 -10 -21 -16 -28 -14 -23 9 -73 -27 -73 -51 0 -14 -5 -26 -10 -28
-6 -2 -12 -17 -13 -33 -2 -28 0 -30 28 -27 l30 3 -23 -16 c-19 -14 -21 -20
-11 -32 8 -9 21 -12 38 -8 35 9 48 22 34 36 -7 7 -9 26 -6 45 4 24 1 40 -11
53 -16 18 -15 19 21 34 l38 15 6 -29 c8 -37 28 -61 46 -55 7 3 13 1 13 -4 0
-6 5 -10 10 -10 17 0 11 20 -7 27 -18 6 -53 38 -53 48 0 3 7 5 15 5 14 0 20
-12 16 -34 -1 -5 10 -6 24 -4 19 4 25 1 25 -13 0 -11 5 -19 11 -19 6 0 8 -9 4
-20 -5 -16 -3 -19 11 -13 14 5 16 2 11 -15 -4 -12 -10 -32 -13 -43 -6 -19 -4
-20 17 -14 21 7 22 6 10 -9 -22 -27 -41 -20 -41 16 0 17 -3 28 -7 25 -3 -4
-17 0 -30 9 -25 15 -89 11 -78 -6 3 -4 -2 -10 -10 -14 -8 -3 -15 -12 -15 -21
0 -12 6 -9 24 9 46 50 96 26 99 -47 2 -38 5 -47 20 -47 13 0 17 5 13 18 -4 12
3 22 23 34 16 9 34 25 40 35 9 17 7 19 -19 15 -29 -4 -30 -4 -19 27 6 18 30
45 56 63 24 18 39 34 33 36 -6 2 -22 -5 -34 -17 -12 -12 -24 -21 -27 -21 -2 0
-5 21 -6 46 -1 31 3 47 13 51 8 3 14 10 14 15 0 6 -7 8 -14 5 -9 -4 -17 2 -21
14 -4 10 -11 17 -16 13 -15 -9 -49 39 -38 52 6 7 6 22 -1 38 -5 15 -9 32 -7
39 1 8 -10 11 -30 11 -28 -2 -33 2 -33 20 0 17 2 18 10 6 11 -18 23 -8 14 14
-9 23 -44 21 -44 -4z m8 -55 c-3 -3 -9 2 -12 12 -6 14 -5 15 5 6 7 -7 10 -15
7 -18z m32 1 c0 -3 -4 -8 -10 -11 -5 -3 -10 -1 -10 4 0 6 5 11 10 11 6 0 10
-2 10 -4z m20 -33 c-8 -3 -21 -10 -27 -16 -9 -7 -13 -5 -13 7 0 11 8 16 28 15
15 0 21 -3 12 -6z m-80 -53 c-8 -5 -19 -10 -25 -10 -5 0 -3 5 5 10 8 5 20 10
25 10 6 0 3 -5 -5 -10z m64 -51 l-30 -30 1 28 c0 20 6 29 25 33 37 10 38 3 4
-31z m76 -9 c20 -16 22 -20 8 -20 -10 0 -18 5 -18 11 0 5 -4 8 -9 5 -5 -3 -11
1 -15 9 -7 20 4 19 34 -5z m-45 -58 c-8 -8 -25 10 -25 27 0 30 14 34 22 5 4
-16 6 -30 3 -32z m75 -22 c0 -5 -4 -10 -10 -10 -5 0 -10 5 -10 10 0 6 5 10 10
10 6 0 10 -4 10 -10z m-20 -44 c0 -6 -7 -2 -15 8 -8 11 -15 25 -15 30 0 6 7 2
15 -8 8 -11 15 -25 15 -30z m-210 24 c0 -5 -7 -10 -16 -10 -8 0 -12 5 -9 10 3
6 10 10 16 10 5 0 9 -4 9 -10z m-35 -30 c-3 -5 -10 -10 -16 -10 -5 0 -9 5 -9
10 0 6 7 10 16 10 8 0 12 -4 9 -10z m-155 -14 c0 -2 -7 -6 -15 -10 -8 -3 -15
-1 -15 4 0 6 7 10 15 10 8 0 15 -2 15 -4z m197 -42 c-3 -3 -12 -4 -19 -1 -8 3
-5 6 6 6 11 1 17 -2 13 -5z m-247 -24 c0 -5 -4 -10 -9 -10 -6 0 -13 5 -16 10
-3 6 1 10 9 10 9 0 16 -4 16 -10z m-30 -19 c0 -5 -7 -11 -14 -14 -10 -4 -13
-1 -9 9 6 15 23 19 23 5z m-90 -36 c-13 -14 -19 -29 -15 -37 5 -9 5 -10 -2 -3
-15 15 -25 65 -13 65 5 0 10 -6 10 -12 0 -7 5 -5 11 5 6 9 15 15 20 11 6 -4 2
-15 -11 -29z m50 25 c0 -5 -2 -10 -4 -10 -3 0 -8 5 -11 10 -3 6 -1 10 4 10 6
0 11 -4 11 -10z m20 -35 c-14 -7 -27 -11 -30 -9 -6 7 22 24 40 23 9 0 5 -6
-10 -14z m-15 -45 c3 -5 1 -10 -4 -10 -6 0 -11 5 -11 10 0 6 2 10 4 10 3 0 8
-4 11 -10z m245 -60 c0 -13 -11 -13 -30 0 -12 8 -11 10 8 10 12 0 22 -4 22
-10z m-180 -60 c0 -5 -5 -10 -11 -10 -5 0 -7 5 -4 10 3 6 8 10 11 10 2 0 4 -4
4 -10z m-106 -6 c-7 -3 -10 -15 -7 -27 4 -20 3 -20 -7 -4 -12 19 -6 37 13 36
9 0 9 -2 1 -5z m76 -18 c0 -3 -4 -8 -10 -11 -5 -3 -10 -1 -10 4 0 6 5 11 10
11 6 0 10 -2 10 -4z m-341 -17 c17 -6 31 -15 31 -19 0 -11 -60 6 -74 20 -13
13 2 13 43 -1z m296 1 c3 -6 -1 -7 -9 -4 -18 7 -21 14 -7 14 6 0 13 -4 16 -10z
m61 -17 c-10 -10 -19 5 -10 18 6 11 8 11 12 0 2 -7 1 -15 -2 -18z m-56 -29 c0
-8 -4 -12 -10 -9 -5 3 -10 10 -10 16 0 5 5 9 10 9 6 0 10 -7 10 -16z m-403
-307 c-14 -20 -27 -33 -31 -30 -9 9 -7 25 2 19 5 -3 16 9 26 25 10 17 20 28
22 26 3 -3 -6 -21 -19 -40z m103 4 c0 -6 -4 -13 -10 -16 -5 -3 -10 1 -10 9 0
9 5 16 10 16 6 0 10 -4 10 -9z"/>
<path d="M2160 3450 c0 -6 7 -10 15 -10 8 0 15 2 15 4 0 2 -7 6 -15 10 -8 3
-15 1 -15 -4z"/>
<path d="M3760 3452 c0 -4 9 -13 20 -20 23 -14 26 -7 6 14 -16 15 -26 18 -26
6z"/>
<path d="M3435 3440 c-3 -5 -1 -10 4 -10 6 0 11 5 11 10 0 6 -2 10 -4 10 -3 0
-8 -4 -11 -10z"/>
<path d="M1965 3415 c30 -22 47 -37 43 -40 -2 -1 -29 1 -61 4 -32 4 -60 4 -63
-1 -3 -4 2 -8 11 -8 11 0 15 -5 11 -15 -3 -10 1 -15 11 -15 13 0 14 -3 5 -12
-10 -10 -8 -16 10 -31 16 -13 19 -20 11 -24 -7 -2 -13 -12 -12 -21 0 -11 2
-12 6 -4 2 6 11 12 19 12 19 0 18 19 -2 42 -13 14 -14 21 -5 32 9 11 9 15 -1
20 -7 3 1 3 17 -1 36 -7 51 -18 36 -27 -19 -12 -12 -28 9 -21 15 5 18 3 14 -9
-9 -22 4 -68 17 -61 7 5 7 11 0 19 -7 9 -7 16 1 24 18 18 28 15 21 -5 -6 -16
-5 -16 10 -4 20 16 21 12 7 -23 -7 -20 -16 -26 -40 -26 -37 0 -90 -21 -109
-43 -17 -21 4 -24 24 -3 9 9 29 12 64 8 37 -3 51 -1 51 8 0 9 4 9 17 -1 15
-12 16 -12 10 4 -3 9 -2 17 2 17 5 0 16 3 24 6 9 3 16 -3 20 -15 3 -14 10 -19
21 -15 9 3 16 10 16 15 0 4 -7 6 -16 2 -12 -4 -15 -2 -12 8 6 18 63 38 113 38
29 1 36 -2 28 -10 -9 -9 -6 -17 10 -31 l22 -19 -27 5 c-21 5 -28 2 -34 -16 -6
-19 -7 -19 -16 -5 -11 21 -29 22 -54 1 -18 -15 -18 -15 8 -10 30 7 41 -4 32
-29 -5 -13 -17 -16 -50 -13 -46 3 -49 2 -35 -21 6 -9 11 -10 15 -2 4 6 23 11
42 11 31 0 34 -2 24 -19 -14 -27 -13 -36 4 -22 11 9 12 -3 9 -77 -4 -72 -2
-95 12 -123 19 -35 50 -188 40 -197 -8 -8 -92 28 -110 48 -16 17 -16 21 -1 42
25 36 20 84 -15 133 -39 54 -75 69 -115 49 -72 -37 -82 -94 -29 -153 19 -21
35 -46 35 -55 0 -26 17 -18 28 13 8 22 7 34 -4 50 -14 20 -13 22 13 33 15 6
32 10 36 10 4 -1 10 5 13 13 4 8 12 15 20 15 16 0 15 -41 -1 -52 -6 -5 -5 -11
4 -17 12 -8 11 -13 -8 -28 -19 -16 -22 -23 -13 -39 17 -33 106 -76 149 -72 33
3 39 7 52 41 13 35 12 43 -7 100 -33 93 -27 161 16 193 13 10 21 40 24 99 2
24 15 35 44 35 30 0 47 -22 31 -39 -10 -11 -9 -13 3 -9 8 2 17 15 20 29 6 21
12 24 53 23 31 0 47 4 47 12 0 9 -15 11 -55 7 -36 -4 -55 -2 -55 5 0 6 8 13
19 17 10 3 27 15 37 26 17 19 17 20 -2 12 -18 -7 -18 -6 -1 20 17 27 17 27 -5
28 -13 0 -17 3 -10 6 21 8 13 21 -10 17 -21 -4 -21 -4 2 7 21 10 22 13 7 16
-36 9 -48 -3 -35 -34 7 -15 17 -31 23 -35 14 -10 1 -20 -18 -13 -8 4 -18 22
-21 40 -8 41 -21 51 -49 37 -28 -12 -219 -54 -224 -48 -3 2 17 11 44 19 30 9
39 15 25 16 -28 1 -92 -25 -92 -37 0 -6 -8 -13 -17 -17 -15 -5 -16 -4 -5 6 17
18 15 29 -5 30 -14 0 -14 2 3 9 33 13 38 29 18 51 -18 20 -18 20 10 10 15 -6
47 -11 72 -11 29 0 44 -4 44 -13 0 -9 12 -11 40 -9 22 2 40 8 40 13 0 8 -29
13 -57 10 -7 -1 -13 3 -13 9 0 5 -6 10 -14 10 -7 0 -16 9 -19 20 -3 11 -13 20
-24 20 -17 -1 -17 -1 -1 -11 10 -5 15 -16 11 -25 -4 -12 -7 -12 -17 -1 -19 23
-85 40 -101 27 -16 -13 -60 4 -50 21 9 13 -9 11 -23 -3 -9 -9 -15 -9 -24 0 -7
7 -20 12 -30 12 -10 0 -18 5 -18 10 0 6 -8 10 -17 10 -16 -1 -16 -2 2 -15z
m117 -63 c-7 -2 -10 -8 -6 -13 3 -5 -9 -9 -25 -9 -17 0 -31 5 -31 10 0 6 9 10
19 10 11 0 23 5 26 10 4 6 11 7 18 3 8 -5 8 -8 -1 -11z m127 2 c10 -9 -35 -3
-49 6 -11 8 -7 9 15 4 17 -4 32 -8 34 -10z m-139 -44 c0 -5 -4 -10 -10 -10 -5
0 -10 5 -10 10 0 6 5 10 10 10 6 0 10 -4 10 -10z m40 0 c0 -5 -5 -10 -11 -10
-5 0 -7 5 -4 10 3 6 8 10 11 10 2 0 4 -4 4 -10z m40 0 c0 -5 -2 -10 -4 -10 -3
0 -8 5 -11 10 -3 6 -1 10 4 10 6 0 11 -4 11 -10z m268 -33 c-16 -6 -28 -14
-28 -17 0 -3 16 -20 35 -39 38 -35 45 -61 18 -62 -15 0 -15 -2 2 -9 19 -8 19
-9 -2 -9 -12 -1 -25 4 -28 9 -8 14 -88 13 -102 -1 -6 -6 -16 -8 -22 -5 -18 11
-13 24 12 28 22 3 23 5 15 68 -3 22 1 26 39 31 24 3 46 8 49 12 4 4 14 7 23 6
9 -1 4 -6 -11 -12z m-373 -77 c4 -6 -7 -10 -27 -9 -27 0 -30 2 -13 9 27 12 33
12 40 0z m342 -56 c-3 -3 -12 -4 -19 -1 -8 3 -5 6 6 6 11 1 17 -2 13 -5z
m-117 -19 c0 -8 -4 -15 -10 -15 -5 0 -10 7 -10 15 0 8 5 15 10 15 6 0 10 -7
10 -15z m84 -19 c-3 -9 -10 -13 -15 -10 -5 3 -3 11 4 19 15 16 19 13 11 -9z
m-54 4 c0 -5 -2 -10 -4 -10 -3 0 -8 5 -11 10 -3 6 -1 10 4 10 6 0 11 -4 11
-10z m22 -38 c6 -6 10 -13 7 -15 -8 -7 -70 14 -65 22 7 11 44 7 58 -7z m-2
-32 c9 0 4 -6 -10 -13 -29 -16 -50 -11 -50 10 0 11 6 14 23 9 12 -3 29 -6 37
-6z m0 -46 c0 -8 -4 -12 -10 -9 -5 3 -10 10 -10 16 0 5 5 9 10 9 6 0 10 -7 10
-16z m-54 -84 c5 -12 8 -12 20 4 13 19 14 18 14 -16 0 -19 9 -61 20 -93 11
-32 20 -64 20 -71 0 -19 -20 -68 -25 -62 -3 2 -10 40 -15 84 -6 43 -20 96 -31
117 -12 24 -18 55 -17 85 1 46 1 46 5 7 2 -22 6 -47 9 -55z m28 49 c-10 -16
-24 -9 -24 12 0 18 2 19 15 9 8 -7 12 -16 9 -21z m-186 -28 c10 -6 7 -12 -13
-25 -20 -13 -25 -23 -21 -41 4 -16 1 -25 -10 -29 -15 -6 -15 -9 1 -32 27 -42
6 -42 -32 -1 -28 31 -34 44 -29 65 12 50 70 85 104 63z m37 -31 c3 -5 1 -10
-6 -10 -7 0 -21 -7 -31 -17 -10 -9 -21 -13 -26 -9 -4 4 4 16 17 27 26 21 37
24 46 9z"/>
<path d="M2412 3188 c3 -7 13 -15 24 -17 16 -3 17 -1 5 13 -16 19 -34 21 -29
4z"/>
<path d="M1375 3400 c10 -11 23 -20 28 -20 6 0 2 9 -8 20 -10 11 -23 20 -28
20 -6 0 -2 -9 8 -20z"/>
<path d="M3770 3416 c0 -2 8 -10 18 -17 15 -13 16 -12 3 4 -13 16 -21 21 -21
13z"/>
<path d="M1812 3394 c-12 -8 -22 -20 -22 -26 0 -6 11 -1 24 11 17 16 31 21 46
16 15 -5 20 -4 16 4 -10 16 -38 14 -64 -5z"/>
<path d="M2106 3401 c-4 -5 3 -7 14 -4 23 6 26 13 6 13 -8 0 -17 -4 -20 -9z"/>
<path d="M2460 3400 c0 -5 9 -10 21 -10 11 0 17 5 14 10 -3 6 -13 10 -21 10
-8 0 -14 -4 -14 -10z"/>
<path d="M3690 3395 c0 -9 -8 -19 -18 -23 -16 -6 -14 -10 15 -35 26 -23 33
-25 33 -13 0 9 -7 19 -15 22 -25 10 -17 25 9 18 13 -3 26 -1 30 4 3 5 18 8 33
5 28 -3 28 -3 4 7 -14 6 -30 9 -37 6 -7 -3 -18 2 -24 10 -16 18 -30 18 -30 -1z"/>
<path d="M2810 3384 c0 -8 5 -12 10 -9 6 3 10 10 10 16 0 5 -4 9 -10 9 -5 0
-10 -7 -10 -16z"/>
<path d="M1270 3365 c-7 -8 -24 -15 -39 -15 -30 0 -59 -16 -48 -26 4 -4 13 -2
19 4 17 17 41 15 34 -3 -6 -17 9 -21 19 -5 8 12 41 8 57 -8 19 -19 18 -43 -1
-64 -17 -18 -19 -18 -25 -1 -6 15 -9 15 -16 3 -5 -8 -22 -15 -39 -15 -16 0
-33 -4 -37 -8 -12 -12 -24 -8 -24 8 0 8 -7 15 -16 15 -15 0 -15 2 0 25 12 19
13 25 3 25 -7 0 -18 -14 -24 -30 -11 -30 -10 -31 32 -50 49 -22 74 -24 126
-10 63 18 74 85 19 123 -14 10 -17 16 -9 19 7 2 9 10 5 16 -10 16 -21 15 -36
-3z"/>
<path d="M1483 3370 c-21 -9 -34 -50 -15 -50 14 1 46 30 33 30 -11 0 -11 3 -1
15 14 17 13 17 -17 5z"/>
<path d="M1425 3360 c3 -5 11 -10 16 -10 6 0 7 5 4 10 -3 6 -11 10 -16 10 -6
0 -7 -4 -4 -10z"/>
<path d="M3035 3340 c-37 -9 -64 -35 -62 -58 1 -16 6 -21 17 -16 8 4 28 9 43
12 21 3 27 9 22 21 -5 13 -4 14 6 4 7 -7 21 -13 30 -13 10 0 19 6 22 13 2 6 8
9 12 5 4 -4 2 -14 -4 -22 -8 -10 -9 -16 -1 -21 12 -8 13 -25 1 -25 -5 0 -11 9
-14 20 -5 21 -37 28 -37 9 0 -6 -9 -9 -20 -6 -12 3 -20 0 -20 -8 0 -7 -7 -16
-16 -19 -14 -5 -15 -4 -4 9 7 8 8 15 3 15 -17 0 -63 -41 -63 -56 0 -20 30 -30
40 -13 5 7 12 10 16 6 4 -4 -1 -13 -11 -21 -16 -11 -17 -17 -7 -29 11 -12 8
-16 -20 -20 -108 -19 -109 -19 -38 -34 36 -7 81 -15 100 -18 33 -4 34 -4 5 4
-16 5 -43 16 -60 25 l-30 16 37 0 c20 0 39 6 41 13 3 7 6 4 6 -7 1 -15 4 -16
16 -6 16 14 32 2 54 -38 10 -19 15 -21 28 -11 13 11 13 15 1 23 -8 6 -17 19
-21 29 -3 9 -14 17 -22 17 -9 0 -14 4 -11 9 3 5 15 7 26 4 17 -5 20 0 20 30 0
21 6 37 14 40 10 4 13 1 10 -8 -7 -16 34 -75 52 -75 6 0 26 -13 44 -30 27 -26
35 -28 53 -18 14 7 17 13 9 16 -16 5 -16 22 1 22 6 0 17 -11 24 -25 9 -21 8
-27 -5 -34 -9 -5 -14 -13 -10 -17 4 -4 19 1 34 10 14 10 35 19 47 20 12 1 22
6 22 12 0 5 -10 8 -22 6 -30 -4 -29 11 1 27 32 18 60 10 64 -17 4 -25 22 -31
22 -6 0 8 5 12 11 8 6 -3 8 -16 5 -29 -4 -15 -1 -25 8 -28 17 -7 31 23 16 33
-10 6 -4 40 7 40 12 0 60 -31 75 -49 23 -27 4 -27 -25 -1 -13 13 -23 16 -25
10 -2 -6 4 -18 14 -25 18 -13 17 -14 -9 -15 -33 0 -59 -42 -38 -63 9 -9 14 -9
21 3 7 11 12 10 27 -9 23 -28 67 -22 56 6 -5 13 0 12 25 -6 37 -26 41 -36 12
-28 -11 3 -17 1 -14 -4 3 -6 1 -16 -6 -24 -7 -8 -7 -15 -1 -19 6 -4 8 -13 5
-21 -6 -14 28 -55 46 -55 6 0 19 -6 30 -12 17 -11 22 -10 29 0 6 10 13 10 34
-1 24 -12 25 -16 12 -27 -19 -16 -19 -30 -1 -30 7 0 20 -8 27 -17 11 -15 11
-16 -1 -5 -19 16 -30 15 -30 -3 0 -38 99 -144 100 -107 0 4 12 16 27 26 26 19
26 19 21 -2 -4 -12 -3 -20 1 -17 8 4 61 -158 61 -185 0 -13 -1 -13 -10 0 -5 8
-10 10 -10 4 0 -15 23 -40 44 -48 14 -5 16 -3 9 6 -10 14 -33 87 -33 107 0 19
40 -7 41 -27 0 -10 3 -12 6 -4 10 25 22 11 16 -22 -3 -18 -1 -36 5 -40 15 -9
42 4 42 20 0 8 5 14 10 14 16 0 11 -37 -10 -72 -24 -40 -24 -44 -4 -52 8 -3
12 -2 9 4 -3 6 -3 15 0 20 11 17 45 -9 45 -34 0 -12 3 -26 7 -30 4 -4 8 -13 9
-19 0 -7 2 -21 2 -31 2 -18 3 -18 20 -3 10 10 24 17 30 17 7 0 12 5 12 10 0 6
-7 10 -16 10 -14 0 -14 3 -4 15 14 17 40 20 40 5 0 -23 20 -7 28 23 6 21 14
32 26 31 9 -1 15 3 13 10 -2 6 -12 10 -21 10 -10 -1 -16 6 -16 17 0 10 -4 19
-10 19 -5 0 -7 7 -4 15 4 8 12 15 20 15 7 0 18 9 24 20 6 11 16 17 25 14 8 -4
15 -1 15 5 0 16 -25 13 -40 -4 -13 -16 -48 -20 -66 -7 -6 4 -16 22 -22 39
l-11 33 36 -15 c37 -16 60 -12 33 5 -15 9 -13 11 13 14 6 0 13 13 15 27 3 26
5 26 43 18 32 -7 43 -6 56 6 8 9 12 19 8 23 -3 4 -12 -1 -19 -10 -12 -17 -16
-17 -45 -2 -34 17 -37 24 -19 42 9 9 7 12 -11 12 -27 0 -61 17 -61 30 0 5 7 6
17 3 11 -4 14 -3 9 5 -4 7 -13 12 -21 12 -7 0 -15 7 -19 15 -3 8 -13 15 -23
15 -17 -1 -16 -2 1 -15 19 -15 19 -15 -1 -15 -19 0 -33 17 -33 41 0 6 10 7 23
4 21 -7 21 -6 4 11 -14 16 -19 17 -26 5 -5 -7 -14 -10 -20 -7 -6 4 -11 2 -11
-3 0 -6 -4 -11 -10 -11 -5 0 -10 7 -10 16 0 9 -7 14 -17 12 -10 -2 -18 -10
-18 -17 0 -8 -5 -16 -12 -18 -11 -4 -18 11 -27 58 -2 8 -8 27 -14 42 -16 38
-15 50 4 43 9 -3 18 -6 20 -6 3 0 2 -4 -1 -10 -4 -6 7 -10 24 -10 25 0 31 4
31 21 0 17 -5 20 -21 16 -13 -3 -19 -1 -16 6 2 7 12 11 21 11 23 -2 20 23 -4
29 -11 3 -20 1 -20 -4 0 -5 -7 -9 -15 -9 -8 0 -15 5 -15 10 0 6 -7 10 -15 10
-8 0 -15 -5 -15 -11 0 -5 -4 -7 -10 -4 -24 15 -6 22 51 20 l61 -3 -7 37 c-8
42 -18 57 -45 64 -16 4 -20 0 -20 -19 0 -14 -6 -24 -15 -24 -9 0 -12 -6 -8
-16 11 -29 -21 -10 -36 22 -14 27 -15 27 -20 8 -6 -20 -7 -20 -29 8 -13 15
-19 28 -13 28 6 0 11 17 11 38 0 26 -6 41 -20 50 -23 14 -25 9 -6 -21 7 -12
10 -32 7 -44 -6 -23 -6 -23 -25 6 -11 16 -35 33 -55 39 l-36 11 38 -3 c30 -2
37 1 37 17 0 26 -30 80 -54 97 -24 17 -95 30 -101 19 -8 -11 24 -20 51 -13 14
4 24 2 24 -5 0 -6 -6 -11 -14 -11 -7 0 -17 -10 -21 -22 -5 -18 -8 -19 -12 -7
-2 10 -14 16 -33 15 -17 -1 -30 -4 -30 -7 0 -12 39 -40 58 -42 11 0 19 -4 16
-8 -2 -4 3 -9 11 -13 8 -3 15 -15 15 -26 0 -16 6 -20 36 -20 27 0 42 -7 65
-32 16 -18 29 -35 30 -38 0 -3 3 -18 5 -35 3 -16 5 -45 5 -63 0 -20 4 -30 11
-26 6 4 8 24 5 48 l-6 41 24 -27 c30 -34 100 -242 80 -234 -9 3 -15 -1 -15 -9
0 -8 7 -15 15 -15 8 0 14 -5 12 -12 -1 -6 7 -13 18 -15 16 -3 17 -2 5 6 -8 5
-11 13 -7 18 5 4 12 1 17 -7 14 -22 12 -26 -12 -38 -22 -10 -21 -11 8 -11 19
-1 34 -7 38 -17 9 -23 8 -26 -6 -18 -18 11 -68 13 -68 2 0 -5 -5 -6 -11 -2 -6
3 -16 0 -21 -7 -7 -11 -11 -11 -15 -1 -2 6 -11 12 -19 12 -8 0 -14 5 -14 11 0
5 -4 8 -10 4 -13 -8 -42 52 -35 74 3 10 -1 24 -10 31 -8 7 -15 25 -15 41 0 36
-37 63 -73 54 -21 -6 -25 -2 -30 22 -3 15 -1 32 4 38 16 16 10 22 -16 17 -26
-5 -32 -16 -15 -27 19 -12 10 -26 -12 -20 -19 6 -21 5 -10 -6 21 -23 13 -32
-13 -15 -25 17 -26 17 -19 -9 8 -33 -2 -32 -20 3 -8 15 -15 21 -16 15 0 -18
-20 -16 -20 2 0 8 -6 12 -13 9 -10 -3 -14 4 -14 26 0 29 3 31 30 27 26 -3 28
-1 24 20 -3 15 1 27 9 30 17 6 19 33 3 33 -6 0 -13 -9 -16 -20 -7 -26 -15 -25
-41 3 -13 14 -22 36 -22 54 0 22 -10 41 -36 67 -20 20 -41 36 -48 35 -6 -1
-19 1 -29 6 -10 4 -23 2 -31 -4 -10 -8 -22 -7 -47 4 -24 10 -28 14 -14 15 18
0 18 1 -3 16 -12 8 -22 22 -22 30 0 17 -38 53 -56 54 -18 0 -42 -32 -27 -37
13 -5 7 -60 -7 -76 -4 -5 -5 4 -2 19 3 18 0 29 -11 36 -17 9 -13 37 7 50 7 5
4 8 -6 8 -9 0 -20 -4 -23 -10 -3 -5 -19 -7 -35 -3 -23 4 -30 2 -30 -10 0 -10
6 -14 15 -11 8 4 22 3 31 0 13 -5 14 -9 4 -21 -10 -12 -10 -15 3 -15 10 0 13
-6 10 -20 -3 -11 -12 -20 -19 -20 -8 0 -14 -8 -14 -17 -1 -17 -1 -17 -14 0 -7
9 -23 17 -35 17 -12 0 -21 6 -21 15 0 8 -5 15 -10 15 -6 0 -9 14 -8 32 3 32
23 60 49 71 9 3 6 6 -7 6 -12 1 -27 -6 -34 -14 -17 -21 -33 -19 -25 4 7 24
-20 48 -38 32 -10 -8 -18 -6 -33 7 -11 11 -27 16 -39 12z m5 -24 c0 -11 -19
-15 -25 -6 -3 5 1 10 9 10 9 0 16 -2 16 -4z m46 -63 c-4 -9 -1 -20 6 -25 10
-7 8 -13 -9 -25 -13 -8 -23 -21 -23 -28 0 -6 -7 -12 -15 -12 -10 0 -15 10 -15
26 0 16 3 21 8 14 5 -8 12 -9 22 -2 13 8 13 11 -3 23 -16 13 -16 14 5 29 29
20 31 20 24 0z m279 -3 c3 -5 1 -10 -4 -10 -6 0 -11 5 -11 10 0 6 2 10 4 10 3
0 8 -4 11 -10z m35 -24 c0 -3 -4 -8 -10 -11 -5 -3 -10 -1 -10 4 0 6 5 11 10
11 6 0 10 -2 10 -4z m460 -5 c0 -14 -18 -23 -30 -16 -6 4 -8 11 -5 16 8 12 35
12 35 0z m-755 -41 c3 -5 1 -10 -4 -10 -6 0 -11 5 -11 10 0 6 2 10 4 10 3 0 8
-4 11 -10z m305 0 c0 -5 -4 -10 -10 -10 -5 0 -10 5 -10 10 0 6 5 10 10 10 6 0
10 -4 10 -10z m467 -5 c0 -8 -4 -12 -9 -9 -4 3 -8 9 -8 15 0 5 4 9 8 9 5 0 9
-7 9 -15z m-43 -1 c20 -8 21 -24 2 -24 -8 0 -16 7 -20 15 -6 17 -4 18 18 9z
m-491 -44 c3 -11 1 -18 -4 -14 -5 3 -9 12 -9 20 0 20 7 17 13 -6z m272 -100
c3 -5 -1 -10 -10 -10 -12 0 -14 -4 -5 -19 13 -26 13 -31 -5 -31 -8 0 -15 4
-15 8 0 5 -9 18 -20 30 -17 18 -18 22 -5 22 8 0 15 -6 15 -12 0 -7 5 -5 11 5
11 19 25 22 34 7z m500 -40 c4 -6 -7 -10 -27 -9 -31 1 -32 1 -8 9 14 4 26 8
27 9 1 1 5 -3 8 -9z m-35 -80 c0 -5 -2 -10 -4 -10 -3 0 -8 5 -11 10 -3 6 -1
10 4 10 6 0 11 -4 11 -10z m-216 -115 c3 -9 0 -15 -9 -15 -9 0 -12 6 -9 15 4
8 7 15 9 15 2 0 5 -7 9 -15z m36 5 c0 -5 -5 -10 -11 -10 -5 0 -7 5 -4 10 3 6
8 10 11 10 2 0 4 -4 4 -10z m-65 -30 c8 -13 -5 -13 -25 0 -13 8 -13 10 2 10 9
0 20 -4 23 -10z m70 -10 c-3 -5 -18 -10 -33 -10 -21 0 -24 2 -12 10 20 13 53
13 45 0z m25 -30 c0 -5 -2 -10 -4 -10 -3 0 -8 5 -11 10 -3 6 -1 10 4 10 6 0
11 -4 11 -10z m260 -5 c0 -8 -7 -15 -15 -15 -8 0 -15 -4 -15 -10 0 -5 7 -10
15 -10 8 0 15 -7 15 -15 0 -8 11 -17 26 -21 35 -9 27 -36 -14 -48 -39 -11 -39
-5 16 -131 58 -133 59 -138 15 -158 -34 -15 -37 -15 -49 1 -19 25 -17 42 6 42
23 0 25 13 9 78 -17 68 -33 82 -91 82 -27 0 -61 6 -77 14 -32 17 -59 46 -43
46 6 0 9 7 5 16 -5 13 -3 15 13 7 21 -11 79 -10 106 1 13 6 22 -1 38 -26 22
-36 26 -34 10 6 -6 18 -6 25 1 23 6 -1 16 6 22 16 10 15 8 21 -13 37 -26 20
-35 60 -16 72 18 13 36 9 36 -7z m-327 -35 c-3 -11 -12 -20 -19 -20 -15 0 -15
21 1 32 17 13 23 9 18 -12z m362 -10 c3 -5 -1 -10 -10 -10 -9 0 -13 5 -10 10
3 6 8 10 10 10 2 0 7 -4 10 -10z m59 -66 c9 -3 15 -16 15 -28 -1 -16 -2 -17
-6 -3 -5 20 -14 22 -30 6 -13 -13 -63 -19 -63 -8 0 5 9 9 19 9 28 0 52 11 45
21 -6 11 -1 11 20 3z m-20 -59 c-4 -8 -11 -12 -16 -9 -6 4 -5 10 3 15 19 12
19 11 13 -6z m-114 -65 c11 -7 7 -10 -18 -10 -25 0 -35 -5 -39 -20 -3 -11 -9
-20 -14 -20 -13 0 -11 8 9 35 18 26 38 31 62 15z m25 -60 c3 -5 -1 -10 -10
-10 -9 0 -13 5 -10 10 3 6 8 10 10 10 2 0 7 -4 10 -10z m-20 -40 c-3 -5 -12
-10 -18 -10 -7 0 -6 4 3 10 19 12 23 12 15 0z m40 0 c3 -5 1 -10 -4 -10 -6 0
-11 5 -11 10 0 6 2 10 4 10 3 0 8 -4 11 -10z"/>
<path d="M4205 2630 c-3 -5 -1 -10 4 -10 6 0 11 5 11 10 0 6 -2 10 -4 10 -3 0
-8 -4 -11 -10z"/>
<path d="M4010 2566 c0 -2 7 -7 16 -10 8 -3 12 -2 9 4 -6 10 -25 14 -25 6z"/>
<path d="M4076 2545 c-3 -8 -1 -15 4 -15 6 0 10 7 10 15 0 8 -2 15 -4 15 -2 0
-6 -7 -10 -15z"/>
<path d="M2865 3310 c-18 -8 -17 -9 8 -9 15 -1 27 4 27 9 0 12 -8 12 -35 0z"/>
<path d="M2940 3285 c0 -29 -4 -35 -20 -35 -11 0 -23 -7 -26 -15 -5 -11 -10
-13 -19 -5 -7 6 -20 8 -29 4 -9 -3 -16 -1 -16 6 0 14 -25 40 -39 40 -6 0 -11
-4 -11 -10 0 -5 3 -10 8 -10 4 0 12 -10 17 -22 6 -13 19 -23 30 -23 11 -1 26
-5 34 -9 9 -6 18 -3 26 7 7 10 19 17 27 17 8 0 19 5 26 12 14 14 16 78 2 78
-5 0 -10 -16 -10 -35z"/>
<path d="M1407 3294 c-4 -4 -7 -14 -7 -23 0 -11 3 -12 11 -4 6 6 10 16 7 23
-2 6 -7 8 -11 4z"/>
<path d="M862 3282 c-7 -5 -10 -16 -7 -24 4 -9 2 -19 -4 -23 -6 -3 -8 -17 -5
-30 9 -36 -1 -45 -39 -35 -29 9 -30 8 -13 -5 11 -8 27 -16 35 -17 32 -3 36 -4
48 -11 6 -4 23 -3 38 3 15 6 30 8 35 5 4 -3 11 2 14 11 5 12 14 15 36 10 33
-6 42 9 11 19 -12 3 -37 -3 -60 -15 -48 -24 -51 -24 -51 -4 0 11 -6 14 -20 9
-22 -7 -26 5 -8 23 10 10 10 15 -1 22 -12 7 -12 12 -3 23 7 7 8 17 4 22 -4 4
17 5 46 3 50 -5 69 3 36 16 -22 9 -77 7 -92 -2z"/>
<path d="M1060 3271 c0 -5 5 -13 10 -16 6 -3 10 -2 10 4 0 5 -4 13 -10 16 -5
3 -10 2 -10 -4z"/>
<path d="M4010 3270 c8 -5 20 -10 25 -10 6 0 3 5 -5 10 -8 5 -19 10 -25 10 -5
0 -3 -5 5 -10z"/>
<path d="M3970 3260 c-13 -8 -12 -10 3 -10 9 0 17 5 17 10 0 12 -1 12 -20 0z"/>
<path d="M4075 3257 c20 -12 30 -57 12 -57 -5 0 -2 -11 7 -25 16 -24 16 -25
-4 -25 -11 0 -20 -5 -20 -11 0 -8 -4 -8 -14 0 -11 9 -16 9 -22 0 -5 -9 -10 -5
-16 12 -6 16 -11 20 -17 11 -4 -7 -15 -10 -23 -7 -12 5 -14 1 -11 -20 3 -14
10 -28 16 -32 6 -4 8 0 4 10 -9 23 19 22 32 0 9 -15 12 -16 20 -4 5 7 13 11
18 8 6 -4 22 -1 35 5 24 12 25 16 20 73 -5 60 -13 75 -42 74 -11 0 -9 -3 5
-12z"/>
<path d="M1884 3246 c-8 -22 -2 -27 16 -16 12 7 12 12 3 21 -10 10 -14 9 -19
-5z"/>
<path d="M1014 3225 c-10 -8 -14 -15 -8 -15 5 0 19 7 30 15 10 8 14 15 8 15
-5 0 -19 -7 -30 -15z"/>
<path d="M3916 3214 c-7 -17 0 -34 14 -34 5 0 7 7 4 15 -4 8 -1 15 5 15 6 0
11 5 11 10 0 16 -27 11 -34 -6z"/>
<path d="M1066 3191 c-24 -26 -19 -36 9 -17 13 9 39 16 57 16 25 0 29 -3 18
-10 -9 -6 -10 -10 -3 -10 6 0 18 -3 26 -6 10 -4 15 0 13 10 -3 21 -5 22 -57
29 -37 5 -50 3 -63 -12z"/>
<path d="M718 3174 c-31 -16 -37 -34 -11 -34 15 0 15 -2 -1 -19 -17 -18 -17
-20 0 -29 10 -6 15 -16 11 -26 -5 -13 0 -16 29 -16 24 0 34 4 31 13 -2 6 -13
11 -25 9 -16 -2 -19 1 -15 18 3 13 0 20 -8 20 -10 1 -8 5 4 14 18 14 18 15 0
24 -16 9 -15 11 10 17 15 4 27 11 27 16 0 13 -21 10 -52 -7z"/>
<path d="M2110 3170 c0 -5 7 -10 16 -10 8 0 12 5 9 10 -3 6 -10 10 -16 10 -5
0 -9 -4 -9 -10z"/>
<path d="M1987 3158 c-27 -10 -33 -33 -9 -33 13 0 13 -10 1 -40 -4 -11 -10
-28 -13 -37 -3 -10 -11 -18 -18 -18 -9 0 -9 3 2 10 13 9 12 12 -4 21 -15 9
-16 13 -5 20 11 7 9 9 -7 9 -19 0 -21 -4 -17 -54 2 -35 -1 -57 -8 -62 -9 -5
-10 -2 -6 11 4 9 2 24 -4 31 -9 11 -8 18 2 30 12 14 11 16 -6 13 -11 -3 -22
-17 -27 -37 -8 -29 -6 -37 15 -56 14 -13 28 -33 32 -44 3 -12 11 -22 16 -22 6
0 7 5 4 10 -4 6 5 10 21 10 16 0 36 11 53 29 23 25 26 37 26 95 0 42 -4 66
-11 66 -16 0 -24 36 -11 49 13 13 11 13 -26 -1z m31 -90 c-3 -7 -13 -15 -24
-17 -16 -3 -17 -1 -5 13 16 19 34 21 29 4z m-20 -57 c3 -8 -1 -12 -9 -9 -7 2
-15 10 -17 17 -3 8 1 12 9 9 7 -2 15 -10 17 -17z m2 -40 c0 -5 -9 -7 -20 -4
-11 3 -20 7 -20 9 0 2 9 4 20 4 11 0 20 -4 20 -9z m-43 -27 c-3 -4 -14 -3 -24
0 -15 6 -15 8 -3 16 16 10 39 -4 27 -16z"/>
<path d="M2767 3164 c-12 -12 3 -22 24 -17 16 4 17 8 7 14 -16 10 -23 11 -31
3z"/>
<path d="M1928 3143 c7 -3 16 -2 19 1 4 3 -2 6 -13 5 -11 0 -14 -3 -6 -6z"/>
<path d="M2825 3140 c-3 -5 -2 -10 4 -10 5 0 13 5 16 10 3 6 2 10 -4 10 -5 0
-13 -4 -16 -10z"/>
<path d="M3746 3142 c-3 -6 1 -13 10 -16 23 -9 28 -2 10 13 -8 7 -17 8 -20 3z"/>
<path d="M2073 3133 c-13 -2 -23 -8 -23 -13 0 -5 15 -4 33 2 52 18 47 22 -10
11z"/>
<path d="M2603 3115 c-27 -24 -27 -24 -5 -25 27 0 29 -16 2 -23 -11 -3 -20
-12 -20 -19 0 -9 -19 -21 -42 -28 -46 -15 -58 -26 -57 -50 0 -9 5 -6 11 8 17
35 43 27 58 -18 11 -34 15 -37 25 -23 8 10 14 12 19 5 3 -6 2 -13 -4 -17 -16
-10 -12 -28 5 -21 17 6 21 -9 5 -19 -14 -9 -1 -27 15 -21 8 3 18 -6 24 -22 12
-33 142 -172 160 -172 11 0 9 5 -4 20 -14 16 -16 30 -11 77 4 32 9 87 12 123
7 82 11 97 25 83 7 -7 11 -55 10 -123 -2 -172 13 -216 19 -55 l5 130 29 5 c43
7 42 24 -2 43 -46 20 -55 21 -99 5 -29 -11 -35 -10 -47 8 -13 17 -12 20 10 32
19 10 29 11 39 2 8 -7 20 -8 27 -4 7 5 21 7 30 6 10 -2 27 3 39 12 21 14 21
15 -12 32 -31 16 -33 16 -20 0 18 -21 7 -33 -15 -16 -13 12 -17 11 -25 -1 -7
-11 -10 -10 -15 9 -4 15 -10 19 -18 13 -7 -6 -18 -4 -31 5 -16 12 -17 16 -6
23 7 5 11 13 7 19 -3 6 0 13 6 15 7 3 3 6 -10 6 -15 1 -22 -4 -20 -13 3 -17
-3 -19 -38 -10 -14 4 -30 2 -37 -5 -8 -8 -2 -11 22 -11 37 0 61 -22 60 -55 0
-11 -3 -15 -5 -9 -3 7 -14 10 -25 7 -15 -4 -29 4 -49 28 -16 19 -29 37 -30 41
0 4 15 12 33 17 31 9 31 9 5 10 -15 1 -39 -10 -55 -24z m47 -72 c0 -14 -36
-18 -44 -4 -8 12 3 20 25 18 10 -1 19 -7 19 -14z m24 -34 c-13 -14 -21 -16
-36 -8 -20 11 -20 11 3 23 35 18 55 9 33 -15z m-91 -16 c10 -10 24 -18 30 -19
7 0 22 -2 35 -2 12 -1 22 -7 22 -12 0 -12 -68 -3 -86 11 -6 5 -15 5 -19 1 -5
-4 -5 1 -2 10 3 9 1 19 -6 22 -7 2 -8 5 -3 5 5 1 18 -7 29 -16z m127 7 c0 -5
-2 -10 -4 -10 -3 0 -8 5 -11 10 -3 6 -1 10 4 10 6 0 11 -4 11 -10z m-10 -40
c0 -5 -5 -10 -11 -10 -5 0 -7 5 -4 10 3 6 8 10 11 10 2 0 4 -4 4 -10z m187 -6
c-3 -3 -12 -4 -19 -1 -8 3 -5 6 6 6 11 1 17 -2 13 -5z m-114 -113 c-1 -57 -5
-106 -9 -110 -8 -8 -71 68 -83 102 -8 22 -7 27 7 27 15 0 15 2 2 10 -12 8 -11
10 8 10 20 0 21 3 12 20 -7 14 -7 20 0 20 5 0 10 7 10 16 0 11 8 14 28 12 l27
-3 -2 -104z"/>
<path d="M850 3114 c-10 -12 -8 -14 14 -14 28 0 35 14 12 23 -8 3 -20 -1 -26
-9z"/>
<path d="M927 3123 c-4 -3 -7 -15 -7 -25 0 -19 25 -25 35 -8 3 6 -1 10 -9 10
-10 0 -13 6 -10 15 6 16 2 20 -9 8z"/>
<path d="M2823 3103 c9 -2 23 -2 30 0 6 3 -1 5 -18 5 -16 0 -22 -2 -12 -5z"/>
<path d="M807 3092 c-9 -2 -15 -8 -11 -13 3 -6 1 -15 -4 -22 -12 -15 -3 -109
10 -101 16 10 59 -42 51 -61 -4 -13 -3 -16 5 -11 7 4 12 18 12 32 0 16 4 23
11 18 7 -4 10 -1 7 7 -3 8 -13 13 -23 12 -24 -2 -58 35 -50 54 3 9 0 20 -7 24
-9 6 -8 13 6 28 21 23 18 38 -7 33z"/>
<path d="M3850 3091 c0 -5 7 -12 16 -15 24 -9 28 -7 14 9 -14 17 -30 20 -30 6z"/>
<path d="M2892 3079 c3 -8 14 -13 26 -12 15 2 19 -2 15 -16 -3 -11 2 -21 14
-25 14 -6 15 -5 6 5 -9 9 -10 16 -1 26 14 17 11 19 -31 28 -26 5 -32 4 -29 -6z"/>
<path d="M3436 3083 c-11 -11 -6 -23 9 -23 8 0 15 -9 15 -19 0 -11 2 -25 5
-33 4 -9 -4 -13 -27 -11 -18 1 -35 2 -38 3 -3 1 -9 2 -14 1 -5 -1 -12 2 -15 7
-3 5 -16 12 -28 16 -18 6 -22 4 -17 -8 8 -20 -15 -21 -77 -2 -26 8 -72 17
-103 20 -45 5 -56 4 -56 -9 0 -8 -6 -12 -14 -9 -8 3 -16 -4 -19 -17 -5 -19 -8
-20 -21 -9 -9 7 -16 8 -16 2 0 -17 31 -23 48 -10 12 11 17 9 30 -10 9 -14 25
-22 42 -22 15 0 35 -9 46 -22 19 -21 19 -21 -6 -15 -14 4 -29 7 -35 7 -5 0 -3
5 5 11 12 9 12 10 -3 5 -10 -3 -34 -6 -52 -6 -40 0 -53 -24 -27 -48 10 -10 13
-14 7 -11 -35 20 -43 18 -36 -9 6 -23 13 -27 41 -27 26 0 37 -6 46 -23 7 -15
14 -20 19 -13 3 6 -12 33 -34 60 -23 27 -41 52 -41 55 0 17 63 4 85 -19 43
-42 26 -106 -30 -117 -22 -4 -23 -24 -10 -149 6 -55 4 -77 -14 -128 -26 -76
-26 -74 5 -151 33 -82 27 -117 -28 -171 -44 -42 -71 -48 -118 -24 l-28 15 -12
-53 c-7 -28 -21 -79 -31 -111 -11 -33 -17 -61 -15 -63 4 -4 42 97 54 147 8 32
11 35 43 32 18 -1 37 -6 42 -11 4 -4 -8 -42 -28 -84 -27 -58 -35 -89 -35 -134
-1 -41 -10 -81 -31 -133 -16 -41 -35 -108 -42 -147 l-12 -73 -66 0 -66 0 18
83 c10 45 28 125 40 178 22 98 21 136 -6 126 -9 -4 -12 -1 -9 7 3 7 -2 19 -11
26 -12 10 -15 10 -15 0 0 -9 -3 -10 -14 -1 -7 6 -22 9 -32 5 -18 -5 -18 -5 -1
9 10 8 14 17 10 20 -12 7 -28 -4 -35 -24 -10 -26 -47 -30 -69 -8 -17 17 -20
18 -17 3 2 -9 -3 -19 -9 -21 -7 -3 -13 3 -13 13 0 14 -3 15 -12 6 -7 -7 -22
-12 -35 -12 -13 0 -23 -5 -23 -11 0 -6 7 -9 15 -5 8 3 25 2 37 -3 17 -6 11 -9
-32 -14 -29 -4 -55 -8 -57 -11 -2 -2 5 -32 16 -67 11 -35 27 -107 36 -159 l15
-95 -5 80 c-4 70 -11 109 -41 213 -6 22 -5 22 77 23 68 0 80 2 62 11 -13 6
-23 18 -23 27 1 14 3 14 14 -2 12 -15 18 -16 40 -6 19 9 34 9 58 1 l33 -12
-37 6 c-20 2 -39 0 -43 -6 -4 -6 17 -10 59 -10 36 0 66 -4 66 -9 0 -5 -13 -61
-29 -124 -17 -63 -33 -138 -37 -166 -4 -34 -13 -55 -24 -61 -19 -10 -339 -13
-377 -4 -16 4 -23 16 -28 47 -4 23 -14 53 -22 67 l-14 25 6 -25 c3 -14 10 -48
16 -76 l11 -52 172 -7 c266 -10 2003 -2 2013 10 5 6 6 53 3 105 l-5 95 -30 2
c-16 1 -23 -1 -13 -3 13 -4 18 -23 23 -89 4 -46 4 -88 1 -94 -5 -7 -67 -11
-182 -11 l-174 0 0 59 c0 77 14 116 38 105 9 -5 49 -9 87 -9 l70 0 -2 90 c-1
50 -6 110 -12 135 -11 51 -8 59 20 42 15 -10 20 -10 24 0 10 33 -11 118 -30
118 -8 0 -10 9 -7 25 3 20 0 25 -17 25 -33 0 -61 -30 -55 -57 5 -18 3 -22 -10
-17 -12 4 -16 0 -16 -15 0 -19 9 -23 37 -20 9 1 22 -31 22 -56 l0 -20 -10 20
c-8 17 -9 17 -4 -5 2 -14 5 -34 6 -45 1 -17 2 -16 10 5 8 23 8 22 6 -7 -2 -18
0 -30 4 -27 4 2 10 -26 14 -63 3 -38 8 -78 10 -89 5 -23 -15 -34 -67 -34 -22
0 -32 9 -58 58 -25 47 -29 61 -20 80 6 13 7 29 3 35 -12 20 -10 46 4 51 10 4
11 10 4 23 -20 36 -71 167 -66 171 2 3 15 -20 29 -49 17 -37 23 -44 19 -24 -3
17 -12 43 -19 59 -8 16 -14 35 -14 43 0 8 -12 13 -31 13 -27 0 -30 -2 -19 -15
8 -9 8 -15 2 -15 -13 0 -42 -57 -42 -82 0 -15 5 -18 22 -12 13 4 28 13 33 21
14 19 29 3 50 -57 19 -54 19 -60 -1 -32 -8 12 -20 22 -26 22 -6 0 -5 -6 3 -16
7 -9 15 -52 17 -101 l5 -86 -29 8 c-71 19 -115 24 -206 25 -92 0 -97 1 -117
26 -12 15 -21 34 -21 43 0 10 -4 21 -9 26 -17 18 -52 118 -44 126 4 4 20 11
36 14 25 7 27 5 28 -26 1 -32 2 -31 10 10 5 25 7 47 4 49 -2 3 -24 -2 -47 -11
-24 -8 -57 -18 -75 -22 -17 -3 -34 -13 -37 -21 -4 -11 0 -13 19 -8 21 5 25 2
25 -14 0 -33 -19 -73 -44 -93 -12 -10 -40 -43 -61 -74 -37 -53 -40 -55 -74
-50 l-36 5 30 -15 c29 -14 28 -14 -41 -15 -49 0 -75 -4 -83 -14 -10 -12 2 -14
74 -12 47 2 88 0 90 -4 2 -3 -2 -24 -10 -46 -10 -29 -11 -52 -5 -79 5 -21 7
-42 5 -46 -9 -14 -94 -27 -186 -28 -81 -1 -98 1 -103 15 -3 9 -13 75 -22 148
-9 78 -25 158 -39 199 -29 79 -31 141 -9 227 19 75 14 177 -11 241 -18 45 -18
47 5 143 21 86 22 102 11 152 l-13 55 44 42 c24 23 46 43 51 43 4 1 10 2 15 3
4 1 -3 9 -15 19 -12 9 -25 29 -28 45 -7 25 -5 27 21 27 25 1 26 2 12 11 -22
12 -24 31 -3 23 8 -4 15 -1 15 5 0 7 -7 14 -15 17 -8 4 -15 10 -15 15 0 4 7 6
15 3 21 -8 19 6 -2 22 -15 11 -11 11 27 3 25 -6 54 -15 65 -19 38 -16 60 -20
73 -11 9 5 23 -1 40 -18 38 -37 35 -55 -10 -61 -30 -4 -36 -8 -28 -20 5 -8 10
-10 10 -4 0 6 20 11 48 11 36 1 42 -1 25 -8 -24 -9 -32 -29 -11 -29 6 0 8 -3
5 -6 -4 -4 -13 -2 -20 4 -8 7 -17 9 -20 5 -12 -11 -7 -77 7 -95 16 -22 30 -23
22 -3 -7 18 10 20 17 3 4 -10 7 -10 15 0 5 7 16 10 26 6 14 -5 14 -9 4 -22
-10 -12 -10 -16 0 -19 6 -3 12 -12 12 -20 0 -9 6 -13 15 -9 8 3 15 1 15 -4 0
-6 4 -10 9 -10 5 0 7 9 4 19 -3 12 -11 17 -19 14 -8 -3 -14 1 -15 8 0 8 -2 25
-3 37 -2 13 3 26 10 29 10 3 12 16 8 41 -6 37 -6 37 15 18 11 -10 31 -19 43
-20 15 -1 23 -7 22 -19 -1 -9 3 -14 8 -11 5 3 12 -3 15 -15 4 -15 14 -21 37
-22 l31 -1 -27 -10 c-16 -5 -28 -16 -28 -24 0 -8 -6 -11 -15 -8 -9 4 -15 0
-15 -10 0 -13 -5 -14 -26 -5 -30 11 -37 8 -29 -12 4 -10 17 -13 44 -11 24 3
42 -1 47 -9 4 -7 3 -14 -4 -17 -7 -2 -12 -12 -12 -22 0 -10 -6 -20 -12 -23
-10 -4 -10 -7 0 -18 10 -11 16 -11 32 -1 11 6 25 12 32 12 7 0 25 7 40 14 26
14 29 13 48 -14 11 -15 20 -35 20 -43 0 -9 5 -19 10 -22 6 -3 10 -1 10 5 0 6
5 8 12 4 7 -4 2 7 -10 24 -13 17 -27 34 -32 37 -6 4 -10 12 -10 18 1 22 130
-151 130 -174 0 -16 -29 3 -35 22 -4 10 -11 19 -16 19 -6 0 -7 -6 -2 -12 4 -7
6 -21 4 -32 -1 -10 2 -15 7 -12 6 4 13 2 17 -4 4 -6 -6 -10 -23 -10 -36 0 -51
-34 -22 -50 9 -5 20 -7 23 -3 4 3 13 0 21 -6 8 -7 20 -10 26 -6 5 3 10 1 10
-4 0 -17 -80 -13 -86 4 -8 20 -28 19 -45 -1 -12 -15 -11 -16 9 -10 22 7 31 -7
12 -19 -19 -12 -11 -26 9 -15 28 15 49 13 29 -2 -21 -18 -32 -62 -12 -54 8 3
14 1 14 -3 0 -15 37 0 59 23 12 13 25 42 29 67 l7 43 14 -44 c23 -76 35 -100
42 -88 4 7 1 24 -7 39 -18 36 -18 49 1 49 8 0 15 5 15 10 0 6 -9 10 -20 10
-15 0 -31 22 -66 91 -25 50 -64 112 -88 138 -47 51 -96 116 -96 126 0 21 -44
65 -65 65 -15 0 -26 7 -30 20 -4 11 -19 28 -33 38 -15 9 -30 21 -34 26 -3 5
-13 11 -21 12 -16 2 -112 73 -112 83 0 3 -4 12 -8 19 -5 8 -3 12 8 12 11 0 15
9 13 33 -2 33 -30 81 -42 70z m-246 -84 c0 -6 -4 -7 -10 -4 -5 3 -10 11 -10
16 0 6 5 7 10 4 6 -3 10 -11 10 -16z m335 -119 c3 -5 1 -10 -4 -10 -6 0 -11 5
-11 10 0 6 2 10 4 10 3 0 8 -4 11 -10z m-61 -69 c3 -5 -1 -11 -9 -15 -9 -3
-15 0 -15 9 0 16 16 20 24 6z m61 -31 c-3 -5 -10 -10 -16 -10 -5 0 -9 5 -9 10
0 6 7 10 16 10 8 0 12 -4 9 -10z m185 -81 c0 -6 -4 -7 -10 -4 -5 3 -10 11 -10
16 0 6 5 7 10 4 6 -3 10 -11 10 -16z m30 11 c0 -5 -2 -10 -4 -10 -3 0 -8 5
-11 10 -3 6 -1 10 4 10 6 0 11 -4 11 -10z m40 -62 l23 -33 -29 26 c-16 15 -35
24 -41 22 -7 -3 -13 0 -13 6 0 23 37 10 60 -21z m160 -253 c0 -8 -2 -15 -4
-15 -2 0 -6 7 -10 15 -3 8 -1 15 4 15 6 0 10 -7 10 -15z m-60 -5 c0 -5 -2 -10
-4 -10 -3 0 -8 5 -11 10 -3 6 -1 10 4 10 6 0 11 -4 11 -10z m48 -88 c6 -18
-15 -14 -22 4 -4 10 -1 14 6 12 6 -2 14 -10 16 -16z m-33 -40 c-8 -8 -25 10
-19 20 4 6 9 5 15 -3 4 -7 6 -15 4 -17z m-789 -108 c-3 -9 -6 -18 -6 -20 0 -2
-10 -4 -22 -4 -20 0 -21 1 -3 20 22 24 40 26 31 4z m-6 -124 c0 -52 6 -82 21
-112 14 -27 25 -81 35 -162 14 -130 22 -179 31 -202 4 -12 -19 -14 -146 -14
l-151 0 6 43 c3 23 21 87 40 142 22 66 34 120 34 155 0 54 25 140 41 140 5 0
13 -15 18 -32 9 -29 10 -26 5 19 -7 62 7 93 41 93 24 0 25 -2 25 -70z m967 64
c-3 -3 -12 -4 -19 -1 -8 3 -5 6 6 6 11 1 17 -2 13 -5z m183 2 c0 -3 -4 -8 -10
-11 -5 -3 -10 -1 -10 4 0 6 5 11 10 11 6 0 10 -2 10 -4z m-205 -36 c3 -5 2
-10 -4 -10 -5 0 -13 5 -16 10 -3 6 -2 10 4 10 5 0 13 -4 16 -10z m223 -24
c-13 -14 -28 -12 -28 5 0 5 9 9 20 9 17 0 19 -2 8 -14z m9 -48 c-3 -7 -5 -2
-5 12 0 14 2 19 5 13 2 -7 2 -19 0 -25z m-545 -123 c11 -22 27 -46 36 -52 14
-12 14 -13 -5 -13 -67 0 -120 68 -107 138 10 57 16 59 37 11 11 -24 29 -62 39
-84z m-75 -19 c28 -39 38 -46 88 -56 32 -7 112 -11 179 -10 129 1 197 -3 215
-14 19 -12 12 -30 -19 -48 -29 -17 -30 -19 -30 -98 l0 -80 -101 0 c-97 0 -100
1 -94 21 11 32 -13 76 -51 94 -19 9 -69 22 -112 30 -105 20 -190 45 -196 60
-8 21 63 145 84 145 3 0 20 -20 37 -44z m293 -43 c0 -5 -37 -8 -83 -9 -61 -1
-72 1 -42 6 56 10 125 11 125 3z m-257 -122 c130 -24 172 -45 172 -87 0 -26
-4 -29 -35 -32 -19 -1 -42 -6 -50 -9 -8 -3 -76 -7 -150 -9 -151 -3 -141 8 25
27 55 6 102 13 105 16 3 3 -50 3 -117 -1 l-123 -7 0 55 c0 76 5 87 38 75 15
-5 76 -18 135 -28z m140 -138 c-7 -2 -19 -2 -25 0 -7 3 -2 5 12 5 14 0 19 -2
13 -5z"/>
<path d="M3050 1917 c0 -3 16 -52 36 -109 24 -72 33 -89 28 -58 -7 49 -64 198
-64 167z"/>
<path d="M3125 1639 c5 -42 4 -46 -20 -57 -14 -7 -38 -12 -53 -12 -15 0 -34
-5 -42 -11 -24 -17 81 0 108 17 23 15 28 53 11 89 -6 14 -8 7 -4 -26z"/>
<path d="M2124 3066 c-4 -11 -13 -15 -25 -11 -11 4 -19 2 -19 -5 0 -7 -7 -10
-15 -6 -15 5 -21 -9 -7 -18 10 -6 102 16 102 24 0 4 -7 13 -15 20 -12 10 -16
9 -21 -4z"/>
<path d="M2672 3068 c2 -6 10 -13 16 -14 7 -1 8 0 2 3 -5 2 -8 9 -4 14 3 5 0
9 -6 9 -7 0 -10 -5 -8 -12z"/>
<path d="M4012 3059 c2 -7 10 -15 17 -17 8 -3 12 1 9 9 -2 7 -10 15 -17 17 -8
3 -12 -1 -9 -9z"/>
<path d="M2426 3052 c-3 -5 6 -12 20 -15 15 -3 23 0 21 7 -5 14 -33 20 -41 8z"/>
<path d="M3881 3044 c0 -11 3 -14 6 -6 3 7 2 16 -1 19 -3 4 -6 -2 -5 -13z"/>
<path d="M3188 3043 c7 -3 16 -2 19 1 4 3 -2 6 -13 5 -11 0 -14 -3 -6 -6z"/>
<path d="M690 3030 c0 -5 5 -10 10 -10 6 0 10 5 10 10 0 6 -4 10 -10 10 -5 0
-10 -4 -10 -10z"/>
<path d="M3228 3033 c7 -3 16 -2 19 1 4 3 -2 6 -13 5 -11 0 -14 -3 -6 -6z"/>
<path d="M3837 3019 c9 -9 9 -17 1 -33 -8 -15 -8 -21 1 -24 6 -2 11 -12 11
-22 0 -10 7 -20 15 -24 8 -3 15 -12 15 -20 0 -9 10 -13 30 -11 29 2 56 15 32
15 -7 0 -12 7 -12 15 0 21 -20 19 -21 -2 0 -14 -3 -13 -11 5 -6 12 -15 22 -20
22 -4 0 -8 7 -8 15 0 8 -5 15 -10 15 -6 0 -8 10 -4 24 4 17 1 25 -13 30 -14 6
-15 5 -6 -5z"/>
<path d="M923 3013 c-20 -8 -15 -23 7 -23 11 0 20 7 20 15 0 15 -6 17 -27 8z"/>
<path d="M1574 3005 c19 -14 36 -12 36 6 0 5 -12 9 -27 9 -27 -1 -27 -1 -9
-15z"/>
<path d="M2415 3010 c-4 -6 7 -10 24 -10 17 0 31 5 31 10 0 6 -11 10 -24 10
-14 0 -28 -4 -31 -10z"/>
<path d="M1680 2994 l-25 -15 25 7 c14 3 32 10 40 15 13 7 13 8 0 8 -8 0 -26
-6 -40 -15z"/>
<path d="M3760 2999 c0 -5 5 -7 10 -4 6 3 10 8 10 11 0 2 -4 4 -10 4 -5 0 -10
-5 -10 -11z"/>
<path d="M654 2988 c-4 -6 -2 -14 4 -16 7 -2 12 -11 12 -20 0 -18 34 -45 44
-35 13 13 6 45 -8 40 -9 -4 -16 3 -20 19 -7 26 -20 31 -32 12z"/>
<path d="M2403 2953 c-13 -44 -8 -59 6 -19 6 14 13 26 16 26 4 0 4 -4 1 -9 -4
-5 0 -11 6 -14 10 -3 9 -8 -2 -22 -9 -11 -10 -16 -2 -11 16 9 15 2 -1 -32 -8
-15 -19 -70 -25 -123 -16 -136 -26 -159 -66 -159 -17 0 -58 7 -89 15 -32 8
-65 15 -72 15 -22 0 -18 -18 6 -25 16 -5 19 -12 14 -28 -4 -12 -8 -62 -10
-110 -2 -49 -6 -91 -8 -94 -3 -3 -25 1 -48 9 -47 16 -53 30 -83 183 -11 56
-14 62 -15 32 -1 -21 8 -73 20 -117 l20 -80 -21 -35 c-21 -33 -16 -47 7 -24 7
7 29 9 62 4 51 -7 51 -7 51 -43 0 -21 -9 -55 -19 -77 -18 -41 -72 -95 -95 -95
-18 0 -37 103 -25 142 13 46 11 56 -6 34 -20 -27 -19 -72 6 -227 l21 -132 -37
-79 c-21 -43 -35 -81 -32 -84 3 -3 22 29 42 73 37 79 40 112 23 224 -2 9 20
34 51 59 l54 43 -7 -34 c-4 -19 -13 -79 -21 -134 -12 -82 -23 -117 -61 -194
-25 -52 -52 -122 -59 -155 -15 -71 -9 -79 63 -99 31 -8 38 -13 25 -18 -29 -10
99 -20 132 -10 26 8 21 9 -32 10 -35 1 -63 5 -63 11 0 5 -16 12 -35 16 -19 3
-46 15 -59 25 -30 23 -28 29 50 200 29 64 56 138 60 167 6 47 8 50 20 35 12
-16 13 -15 4 10 -15 43 -13 77 6 77 13 0 14 3 5 14 -13 15 -5 156 8 156 3 0
14 -30 24 -68 10 -37 20 -77 23 -89 5 -18 2 -23 -12 -24 -18 0 -18 -1 1 -10
22 -11 55 -107 55 -161 0 -41 47 -273 60 -298 10 -18 59 -40 89 -40 9 0 -3 9
-25 19 -23 10 -44 24 -48 29 -8 13 -45 207 -52 272 -3 25 -18 97 -33 160 -73
297 -71 286 -62 408 5 62 12 116 16 120 3 4 35 5 70 4 35 -2 72 1 83 7 23 12
37 64 51 186 6 45 14 92 20 106 5 14 11 46 12 70 3 40 2 44 -21 47 -21 2 -27
-3 -37 -35z m-272 -601 c-13 -2 -27 0 -32 5 -6 6 3 7 23 4 28 -4 29 -6 9 -9z"/>
<path d="M2958 2983 c6 -2 12 -11 12 -19 0 -17 26 -19 36 -2 4 7 3 8 -4 4 -7
-4 -12 -1 -12 8 0 10 -8 16 -22 15 -13 0 -17 -3 -10 -6z"/>
<path d="M892 2968 c5 -15 28 -23 28 -10 0 5 -7 13 -16 16 -10 4 -14 1 -12 -6z"/>
<path d="M3755 2970 c-5 -9 -1 -10 16 -5 21 7 22 6 11 -7 -10 -13 -10 -17 4
-22 21 -8 21 -9 19 17 -2 24 -38 36 -50 17z"/>
<path d="M1030 2959 c0 -5 5 -7 10 -4 6 3 10 8 10 11 0 2 -4 4 -10 4 -5 0 -10
-5 -10 -11z"/>
<path d="M1523 2938 c-20 -22 -11 -23 27 -3 35 18 37 21 10 21 -12 0 -28 -8
-37 -18z"/>
<path d="M3277 2953 c-14 -13 -7 -42 8 -37 12 5 13 10 5 19 -8 10 -7 14 7 18
14 4 14 5 2 6 -9 0 -19 -2 -22 -6z"/>
<path d="M3387 2954 c7 -3 9 -12 6 -20 -6 -16 13 -19 23 -3 7 11 -13 29 -31
28 -5 0 -5 -3 2 -5z"/>
<path d="M1690 2941 c0 -9 -8 -12 -25 -9 -14 3 -28 1 -32 -4 -9 -15 19 -29 45
-23 12 3 22 1 22 -5 0 -5 7 -10 15 -10 8 0 15 5 15 11 0 6 9 8 20 4 11 -3 20
-2 20 4 0 12 -36 24 -49 16 -6 -3 -14 3 -20 12 -7 12 -10 13 -11 4z"/>
<path d="M730 2925 c0 -8 7 -15 15 -15 9 0 12 6 9 15 -4 8 -10 15 -15 15 -5 0
-9 -7 -9 -15z"/>
<path d="M930 2930 c-13 -8 -12 -10 3 -10 9 0 17 5 17 10 0 12 -1 12 -20 0z"/>
<path d="M4217 2920 c6 -22 21 -35 29 -27 7 7 -15 47 -25 47 -5 0 -7 -9 -4
-20z"/>
<path d="M2520 2907 c0 -7 4 -17 9 -22 5 -6 11 -21 13 -35 2 -15 18 -34 44
-52 29 -19 52 -48 77 -96 54 -103 68 -111 202 -121 l80 -6 6 -60 6 -60 1 51
c2 38 7 56 23 70 21 19 21 19 -32 26 -30 3 -82 6 -116 7 -75 1 -106 23 -154
109 -36 65 -67 102 -84 102 -7 0 -20 10 -31 22 -17 19 -17 21 -1 15 16 -6 16
-5 0 21 -14 22 -15 25 -2 17 8 -5 6 -2 -4 8 -23 20 -37 22 -37 4z"/>
<path d="M4157 2913 c-10 -9 -9 -23 1 -23 5 0 9 7 9 15 0 17 -1 18 -10 8z"/>
<path d="M813 2867 c-12 -23 -24 -64 -27 -91 -6 -48 -17 -66 -43 -66 -9 0 -11
10 -6 32 4 22 3 29 -5 24 -7 -4 -12 -14 -12 -22 0 -20 -35 -52 -62 -56 -16 -2
-23 -10 -23 -25 0 -13 -6 -28 -13 -35 -27 -27 -5 -70 42 -82 16 -4 30 -15 33
-26 6 -23 33 -27 33 -5 0 8 13 27 29 41 26 23 29 32 27 71 -1 25 -9 49 -17 54
-12 7 -12 9 0 9 8 0 12 3 8 6 -3 3 4 15 15 26 16 16 22 17 36 6 14 -11 15 -11
9 5 -4 10 -7 23 -7 29 0 6 -7 8 -15 4 -20 -7 -19 2 6 75 25 72 22 84 -8 26z
m-133 -198 c-11 -8 -12 -12 -2 -16 6 -2 12 -9 12 -15 0 -6 -9 -3 -20 7 -26 24
-25 35 3 35 18 0 19 -2 7 -11z m78 -14 c-8 -8 -48 8 -42 16 3 5 14 4 25 -2 12
-6 19 -12 17 -14z m-101 -47 c-3 -8 -6 -5 -6 6 -1 11 2 17 5 13 3 -3 4 -12 1
-19z m67 6 c9 -3 16 -11 16 -16 0 -6 -6 -6 -14 1 -9 7 -17 8 -20 2 -3 -5 0
-11 6 -14 7 -2 9 -8 5 -13 -9 -9 -27 13 -27 34 0 13 10 15 34 6z m-84 -14 c0
-5 -4 -10 -10 -10 -5 0 -10 5 -10 10 0 6 5 10 10 10 6 0 10 -4 10 -10z m37
-32 c-3 -7 -5 -2 -5 12 0 14 2 19 5 13 2 -7 2 -19 0 -25z"/>
<path d="M3265 2890 c3 -5 -6 -17 -20 -26 -29 -19 -27 -31 3 -15 18 9 25 6 52
-27 26 -29 31 -32 27 -15 -4 20 -3 21 15 12 12 -7 23 -7 27 -2 3 5 15 13 26
17 19 8 19 8 -4 17 -18 7 -27 6 -33 -3 -6 -10 -10 -10 -17 1 -8 12 -12 12 -25
2 -13 -11 -16 -11 -16 3 0 9 -4 16 -10 16 -5 0 -10 7 -10 15 0 8 -5 15 -11 15
-5 0 -8 -4 -4 -10z"/>
<path d="M690 2880 c8 -5 20 -10 25 -10 6 0 3 5 -5 10 -8 5 -19 10 -25 10 -5
0 -3 -5 5 -10z"/>
<path d="M748 2858 c11 -13 5 -19 -38 -42 -27 -14 -56 -26 -64 -26 -15 0 -51
-48 -42 -57 7 -7 64 16 72 29 4 6 -4 5 -16 -2 -23 -13 -36 -8 -25 9 3 6 19 11
35 11 16 0 32 5 35 10 4 6 15 8 25 5 10 -3 22 0 26 6 5 9 2 10 -12 6 -18 -7
-18 -7 0 8 11 8 23 15 28 15 16 0 7 20 -14 31 -20 11 -21 10 -10 -3z"/>
<path d="M2387 2848 c-4 -14 -9 -34 -13 -45 -3 -10 2 -5 11 10 9 16 15 36 13
45 -3 12 -6 9 -11 -10z"/>
<path d="M4324 2858 c-6 -10 14 -20 27 -13 5 4 21 -5 33 -18 24 -26 36 -26 36
0 0 7 -7 13 -15 13 -8 0 -12 6 -9 13 3 10 -5 13 -32 13 -19 -1 -38 -4 -40 -8z"/>
<path d="M4012 2851 c-11 -7 -11 -9 2 -14 10 -4 16 -1 16 8 0 17 -1 17 -18 6z"/>
<path d="M890 2836 c0 -9 5 -16 10 -16 6 0 10 4 10 9 0 6 -4 13 -10 16 -5 3
-10 -1 -10 -9z"/>
<path d="M3006 2793 c8 -26 12 -53 10 -60 -7 -18 -101 -63 -131 -63 -14 0 -25
-5 -25 -10 0 -25 111 15 163 58 17 15 24 52 9 52 -4 0 -8 15 -7 32 0 23 -5 34
-17 36 -15 3 -15 -1 -2 -45z"/>
<path d="M4233 2833 c9 -2 23 -2 30 0 6 3 -1 5 -18 5 -16 0 -22 -2 -12 -5z"/>
<path d="M1410 2819 c0 -5 5 -7 10 -4 6 3 10 8 10 11 0 2 -4 4 -10 4 -5 0 -10
-5 -10 -11z"/>
<path d="M3982 2813 c10 -2 15 -10 11 -19 -8 -22 15 -17 27 6 10 18 8 20 -22
19 -18 -1 -25 -3 -16 -6z"/>
<path d="M4287 2814 c-4 -4 -7 -26 -7 -50 0 -33 4 -43 20 -47 13 -3 20 0 20 9
0 8 -7 14 -15 14 -19 0 -19 9 2 32 15 17 15 20 2 34 -8 8 -18 11 -22 8z"/>
<path d="M4090 2801 c0 -6 5 -13 10 -16 6 -3 10 1 10 9 0 9 -4 16 -10 16 -5 0
-10 -4 -10 -9z"/>
<path d="M4236 2801 c-18 -7 -18 -8 -2 -14 19 -8 36 -1 36 14 0 10 -7 11 -34
0z"/>
<path d="M4420 2790 c-11 -7 -11 -11 -1 -24 10 -12 9 -19 -7 -36 -19 -21 -21
-21 -31 -3 -6 11 -11 13 -11 4 0 -7 -6 -11 -15 -7 -8 3 -19 -3 -25 -14 -14
-25 -13 -35 3 -23 15 13 48 13 64 1 9 -7 15 -5 20 8 4 11 14 24 22 31 14 10
14 13 -2 31 -14 15 -15 21 -5 25 7 2 11 7 8 10 -3 3 -12 2 -20 -3z"/>
<path d="M3214 2764 c3 -9 6 -19 6 -24 0 -4 11 -15 26 -24 22 -15 29 -15 55
-4 16 7 29 19 29 25 0 7 5 13 10 13 6 0 10 5 10 10 0 6 -9 10 -21 10 -16 0
-20 -4 -15 -17 6 -14 2 -13 -15 4 l-23 22 -10 -21 c-14 -26 -32 -24 -28 2 2
13 -2 20 -13 20 -12 0 -15 -5 -11 -16z"/>
<path d="M4002 2749 c-16 -25 -15 -28 8 -22 11 3 20 11 20 19 0 22 -15 24 -28
3z"/>
<path d="M850 2748 c0 -10 10 -28 21 -39 12 -12 22 -35 23 -53 1 -25 -3 -31
-19 -31 -11 0 -20 -7 -20 -15 0 -10 8 -14 23 -13 12 2 22 -3 22 -10 0 -8 3 -7
9 2 17 27 -8 166 -26 148 -3 -4 -12 1 -19 11 -13 16 -13 16 -14 0z"/>
<path d="M2037 2660 c-3 -11 -1 -20 4 -20 5 0 9 9 9 20 0 11 -2 20 -4 20 -2 0
-6 -9 -9 -20z"/>
<path d="M3617 2643 c-11 -10 -8 -20 8 -27 9 -3 19 3 25 14 9 17 7 20 -8 20
-10 0 -22 -3 -25 -7z"/>
<path d="M810 2617 c0 -17 5 -27 15 -27 19 0 19 9 0 34 -14 19 -15 19 -15 -7z"/>
<path d="M862 2555 c0 -16 2 -22 5 -12 2 9 2 23 0 30 -3 6 -5 -1 -5 -18z"/>
<path d="M3698 2558 c-7 -13 -11 -27 -10 -32 2 -5 -5 -17 -14 -27 -9 -11 -13
-19 -7 -19 14 0 46 37 41 47 -8 13 26 38 52 39 14 1 30 -6 37 -15 7 -9 13 -11
13 -5 0 20 -25 34 -62 34 -28 0 -40 -5 -50 -22z"/>
<path d="M887 2553 c-4 -3 -7 -13 -7 -22 1 -13 3 -13 11 2 11 19 8 33 -4 20z"/>
<path d="M641 2522 c-8 -15 -7 -27 4 -49 8 -15 15 -39 15 -52 0 -19 -3 -21
-14 -11 -8 6 -16 21 -18 33 -2 11 -18 30 -36 40 -44 26 -53 14 -11 -13 l34
-22 -42 5 c-58 7 -55 -10 2 -19 32 -4 43 -10 36 -18 -6 -7 2 -17 25 -28 l34
-18 0 60 c0 33 -4 60 -10 60 -17 0 -11 18 7 22 15 3 15 4 0 16 -13 11 -17 10
-26 -6z"/>
<path d="M1700 2523 c-8 -3 -20 -12 -27 -20 -6 -8 -77 -35 -158 -59 -151 -45
-192 -54 -140 -29 17 8 21 13 10 10 -72 -16 -77 -18 -63 -27 9 -7 7 -8 -10 -5
-12 3 -20 1 -16 -4 3 -5 -4 -9 -15 -9 -13 0 -19 5 -15 14 7 18 -81 76 -117 76
-35 0 -89 -50 -89 -83 0 -13 9 -36 20 -50 19 -24 20 -26 3 -37 -15 -9 -14 -10
7 -4 19 5 22 3 14 -5 -6 -7 -27 -13 -47 -14 -19 -1 -33 -6 -30 -10 3 -4 -7 -7
-23 -5 -15 2 -29 -3 -31 -9 -3 -8 4 -13 16 -13 22 0 28 -19 12 -35 -5 -6 -26
-59 -46 -120 -20 -60 -42 -116 -49 -124 -12 -16 98 51 127 77 10 9 38 46 63
83 41 63 96 119 140 145 15 9 16 15 7 25 -9 9 -16 9 -25 1 -9 -7 -18 -6 -32 4
-14 9 -23 11 -32 3 -8 -7 -14 -7 -19 1 -3 5 5 14 19 20 19 7 25 16 24 35 -1
14 -7 25 -13 25 -17 0 -35 -22 -35 -42 0 -18 -11 -24 -22 -12 -5 5 30 65 48
83 2 2 13 -4 24 -14 21 -19 48 -21 200 -14 38 1 78 -6 130 -24 41 -14 107 -31
145 -38 87 -14 99 -20 135 -71 24 -33 30 -51 30 -95 0 -29 -3 -53 -6 -53 -14
0 -141 72 -166 94 -14 13 -28 37 -30 52 l-4 29 -12 -27 c-9 -21 -18 -28 -40
-28 -16 0 -50 -3 -76 -6 l-46 -7 0 67 c0 37 -4 66 -10 66 -6 0 -10 -50 -10
-129 0 -150 -13 -197 -68 -254 -50 -52 -53 -53 -213 -93 -171 -42 -179 -42
-179 -9 0 14 -7 42 -15 61 l-15 35 58 -7 c31 -4 105 -14 164 -24 59 -9 111
-14 115 -11 4 3 9 14 11 23 3 16 0 17 -23 6 -21 -9 -48 -9 -123 0 -52 7 -97
14 -99 16 -2 1 25 32 60 67 34 36 80 86 103 111 35 39 47 46 90 51 58 6 64 3
64 -28 0 -13 5 -27 12 -31 8 -5 9 2 5 26 -4 18 -7 56 -7 84 0 37 -3 47 -10 36
-5 -8 -10 -25 -10 -37 0 -19 -7 -22 -56 -29 -65 -8 -101 -34 -158 -117 -45
-66 -125 -127 -164 -127 -30 0 -62 -26 -62 -51 0 -8 -5 -21 -11 -29 -8 -11 -9
-6 -5 23 3 22 1 35 -5 32 -5 -4 -9 -25 -9 -48 0 -23 -5 -58 -10 -77 -6 -19
-11 -50 -12 -67 -1 -18 -6 -33 -11 -33 -5 0 -7 17 -4 40 6 49 -8 44 -17 -5 -4
-20 -11 -33 -16 -30 -11 7 -5 106 11 199 5 32 7 61 5 64 -3 2 -8 -14 -12 -37
-10 -63 -21 -57 -13 8 8 72 17 101 32 103 7 0 17 2 22 3 6 2 20 3 33 4 45 2
18 111 -29 111 -10 0 -19 -5 -19 -11 0 -5 5 -7 10 -4 6 3 10 0 10 -9 0 -8 6
-17 13 -19 9 -4 9 -6 0 -6 -18 -1 -16 -21 1 -21 8 0 17 -4 20 -9 9 -14 -27 -7
-44 9 -11 10 -13 18 -6 23 8 6 7 10 -1 14 -7 2 -14 17 -14 31 -1 15 -7 -2 -14
-38 -7 -36 -18 -89 -24 -119 -6 -29 -11 -109 -11 -176 0 -119 -1 -123 -22
-129 -13 -3 -26 -2 -30 2 -4 4 -14 63 -21 131 -11 108 -11 125 2 138 11 12 12
19 3 34 -8 12 -8 19 -2 19 5 0 10 -5 10 -12 0 -9 3 -9 12 0 8 8 8 15 -2 27
-12 14 -11 16 13 10 22 -6 26 -3 30 22 6 41 -2 -40 -13 -122 -12 -95 -12 -215
0 -215 6 0 10 47 10 120 0 79 6 144 16 186 12 45 14 68 6 73 -5 3 -14 22 -19
41 -5 19 -16 36 -24 36 -8 1 -20 2 -26 3 -7 0 -13 5 -13 10 0 4 11 6 25 3 14
-2 25 0 25 5 0 15 -50 34 -71 28 -15 -5 -19 -1 -19 17 0 19 -2 20 -10 8 -9
-13 -13 -11 -30 10 -13 17 -20 20 -20 10 0 -13 -1 -13 -10 0 -6 9 -10 10 -10
3 0 -26 14 -43 36 -43 29 0 29 6 4 -83 -11 -39 -25 -129 -31 -199 -9 -119 -9
-129 11 -172 11 -25 22 -46 25 -46 2 0 3 42 2 93 0 50 -3 78 -5 60 -2 -17 -10
-37 -18 -43 -12 -10 -14 -7 -14 19 0 19 4 30 10 26 6 -4 10 28 11 87 1 51 4
107 8 123 7 28 8 29 15 8 4 -13 8 -52 9 -87 1 -35 4 -63 7 -61 3 2 5 -27 5
-63 0 -108 9 -206 20 -214 6 -4 56 -8 112 -8 98 0 103 1 119 25 11 17 15 39
11 72 -2 27 -2 40 0 31 2 -10 13 -18 24 -18 30 0 251 49 271 60 10 6 26 10 36
10 27 0 106 53 135 91 37 49 50 85 56 159 l6 65 88 3 c78 2 87 1 87 -15 -1
-26 -34 -97 -66 -138 -26 -35 -36 -80 -49 -235 -4 -46 -1 -40 15 35 11 50 18
101 16 115 -6 36 31 86 83 111 24 11 41 22 38 25 -3 3 -15 0 -27 -6 -31 -17
-33 -9 -10 43 24 54 34 58 52 20 19 -41 17 -54 -24 -114 -39 -56 -57 -115 -58
-184 0 -22 -16 -78 -35 -125 -23 -56 -35 -102 -35 -133 l0 -48 -82 1 c-322 5
-908 -1 -908 -10 0 -13 1486 -13 1515 0 13 6 -12 9 -73 9 l-92 1 6 88 c4 48
13 104 21 126 20 60 16 108 -18 180 -27 58 -32 80 -36 174 -2 59 -9 119 -15
135 -13 34 -72 87 -98 87 -10 0 -26 7 -34 16 -15 14 -16 14 -16 0 0 -19 7 -19
-82 -1 -95 19 -188 51 -168 58 8 3 56 17 106 31 50 14 98 28 107 31 11 5 17
-2 22 -27 12 -58 16 -67 29 -62 9 4 13 21 11 54 -2 34 1 50 11 54 8 3 14 15
14 26 0 20 -11 23 -40 13z m30 -13 c0 -5 -8 -10 -17 -10 -15 0 -16 2 -3 10 19
12 20 12 20 0z m-527 -75 c53 -36 51 -61 -3 -30 -41 24 -64 18 -84 -20 -22
-39 -36 -37 -36 6 0 22 8 34 33 49 41 25 45 25 90 -5z m494 -37 c-3 -8 -6 -5
-6 6 -1 11 2 17 5 13 3 -3 4 -12 1 -19z m-540 -169 c-20 -16 -53 -59 -73 -94
-33 -60 -83 -115 -105 -115 -14 0 -12 9 25 116 38 109 49 121 123 133 65 10
75 -3 30 -40z m-488 -41 c-3 -35 18 -77 43 -88 18 -7 19 -9 6 -9 -10 -1 -27 8
-38 19 -18 18 -20 18 -22 3 0 -10 -4 5 -7 32 -7 54 -5 65 10 65 6 0 9 -10 8
-22z m36 -8 c3 -5 2 -10 -4 -10 -5 0 -13 5 -16 10 -3 6 -2 10 4 10 5 0 13 -4
16 -10z m296 -17 c-12 -20 -14 -14 -5 12 4 9 9 14 11 11 3 -2 0 -13 -6 -23z
m-256 -23 c8 -13 -5 -13 -25 0 -13 8 -13 10 2 10 9 0 20 -4 23 -10z m1015 -30
c63 -32 66 -36 75 -125 4 -33 14 -89 22 -124 12 -49 14 -84 8 -145 -5 -45 -7
-103 -6 -129 l2 -49 -73 4 c-40 2 -82 8 -92 13 -14 6 -17 5 -12 -3 5 -9 -14
-12 -70 -12 l-77 0 6 43 c3 23 18 69 32 102 17 38 31 95 39 161 11 92 16 106
50 153 21 28 41 51 45 51 5 0 11 -55 15 -122 7 -132 21 -170 65 -176 19 -3 21
1 21 51 0 54 -31 162 -51 182 -13 11 -6 -18 17 -74 19 -47 19 -142 0 -135 -24
9 -36 62 -36 159 0 77 -4 102 -25 149 -14 31 -22 56 -20 56 3 0 32 -13 65 -30z
m-1066 -45 c6 -17 4 -18 -18 -9 -20 8 -21 24 -2 24 8 0 16 -7 20 -15z m-14
-47 c0 -19 -2 -20 -10 -8 -13 19 -13 30 0 30 6 0 10 -10 10 -22z m-13 -120
c-2 -13 -4 -3 -4 22 0 25 2 35 4 23 2 -13 2 -33 0 -45z m1232 -73 c0 -11 -7 0
-15 25 -7 25 -13 50 -13 55 1 18 27 -59 28 -80z m-1222 -7 c-3 -7 -5 -2 -5 12
0 14 2 19 5 13 2 -7 2 -19 0 -25z m208 2 c3 -5 1 -10 -4 -10 -6 0 -11 5 -11
10 0 6 2 10 4 10 3 0 8 -4 11 -10z m-198 -87 c-3 -10 -5 -4 -5 12 0 17 2 24 5
18 2 -7 2 -21 0 -30z m199 0 c-8 -15 -15 -22 -16 -15 0 17 20 55 27 49 2 -3
-2 -18 -11 -34z"/>
<path d="M1796 1708 c4 -18 10 -49 14 -68 8 -35 8 -35 9 -5 1 44 -10 105 -20
105 -5 0 -6 -15 -3 -32z"/>
<path d="M1760 1560 c-13 -8 -13 -10 2 -10 9 0 20 5 23 10 8 13 -5 13 -25 0z"/>
<path d="M1600 2490 c-8 -5 -10 -10 -5 -10 6 0 17 5 25 10 8 5 11 10 5 10 -5
0 -17 -5 -25 -10z"/>
<path d="M3840 2476 c0 -15 -4 -25 -9 -22 -5 3 -11 -1 -15 -9 -8 -21 -26 -19
-26 3 -1 16 -1 16 -14 0 -16 -22 -36 -23 -36 -3 0 8 -7 15 -15 15 -8 0 -15 5
-15 10 0 6 -5 10 -11 10 -5 0 -7 -5 -4 -10 4 -6 1 -17 -5 -25 -10 -12 -9 -15
7 -15 11 0 28 -9 38 -20 10 -11 23 -16 29 -13 6 4 16 8 21 8 49 4 92 62 66 88
-8 8 -11 3 -11 -17z"/>
<path d="M700 2482 c0 -4 4 -12 8 -17 11 -14 -11 -113 -24 -108 -19 6 -64 -16
-64 -32 0 -20 10 -19 25 1 10 14 15 14 34 4 23 -12 65 -5 44 8 -8 5 -8 23 -1
65 6 31 7 64 4 72 -6 16 -26 21 -26 7z"/>
<path d="M1548 2473 c7 -3 16 -2 19 1 4 3 -2 6 -13 5 -11 0 -14 -3 -6 -6z"/>
<path d="M4387 2459 c4 -13 9 -17 15 -11 11 11 3 32 -12 32 -4 0 -6 -9 -3 -21z"/>
<path d="M687 2433 c-4 -3 -7 -18 -6 -32 1 -26 1 -25 10 3 9 31 7 41 -4 29z"/>
<path d="M4413 2421 c-8 -13 -9 -22 -3 -26 11 -7 24 18 18 35 -2 6 -9 1 -15
-9z"/>
<path d="M566 2411 c-3 -5 1 -11 9 -15 9 -3 15 0 15 9 0 16 -16 20 -24 6z"/>
<path d="M2965 2399 c3 -14 -1 -63 -10 -108 -10 -45 -15 -84 -12 -87 2 -2 10
23 17 56 9 43 16 57 22 48 7 -9 8 -4 5 15 -3 22 0 28 17 32 11 2 30 6 41 8 13
3 10 5 -10 6 l-30 2 30 14 30 15 -33 -6 c-24 -4 -39 -1 -53 12 -20 18 -20 18
-14 -7z"/>
<path d="M4073 2403 c-18 -7 -16 -23 2 -23 8 0 15 7 15 15 0 8 -1 15 -2 14 -2
0 -9 -3 -15 -6z"/>
<path d="M3980 2390 c0 -5 5 -10 10 -10 6 0 10 5 10 10 0 6 -4 10 -10 10 -5 0
-10 -4 -10 -10z"/>
<path d="M4430 2383 c0 -7 -7 -13 -15 -13 -8 0 -15 -8 -15 -17 0 -14 -3 -13
-23 5 l-22 21 -11 -23 c-10 -21 -9 -24 10 -23 12 0 29 -3 39 -7 12 -6 17 -4
17 6 0 8 9 19 20 24 14 7 17 13 10 24 -6 10 -10 11 -10 3z"/>
<path d="M791 2343 c-26 -45 -42 -58 -50 -44 -5 7 -14 10 -20 7 -17 -11 -13
-26 7 -27 10 0 12 -3 5 -6 -7 -2 -13 -9 -13 -14 0 -15 22 -10 44 9 20 16 20
16 7 -1 -8 -9 -11 -20 -7 -24 7 -8 35 27 36 45 0 6 -5 12 -12 12 -7 0 -6 6 4
18 23 27 30 42 19 42 -6 0 -15 -8 -20 -17z"/>
<path d="M1330 2326 c0 -14 5 -28 10 -31 6 -4 10 7 10 24 0 17 -4 31 -10 31
-5 0 -10 -11 -10 -24z"/>
<path d="M3600 2337 c-27 -14 -38 -42 -39 -105 -1 -24 -6 -52 -11 -63 -6 -10
-8 -19 -5 -19 14 0 55 34 55 45 0 7 14 15 31 19 43 8 51 8 45 -3 -4 -5 -2 -11
4 -13 5 -1 7 -13 4 -25 -5 -17 -14 -23 -33 -23 -25 -1 -79 -36 -69 -45 5 -5
159 43 168 53 3 3 -11 2 -30 -1 l-35 -7 28 21 c23 18 27 28 27 69 0 63 -6 78
-41 95 -34 18 -66 19 -99 2z m88 -13 c12 -8 27 -24 33 -36 10 -19 9 -20 -15
-14 -31 8 -66 -8 -66 -30 0 -8 -7 -14 -17 -12 -10 2 -22 -7 -30 -22 -12 -23
-13 -22 -13 26 0 86 51 128 108 88z m42 -104 c0 -16 -4 -30 -9 -30 -15 0 -23
18 -11 25 15 10 12 23 -7 28 -14 4 -12 5 5 6 18 1 22 -4 22 -29z"/>
<path d="M905 2310 c-3 -5 -2 -10 4 -10 5 0 13 5 16 10 3 6 2 10 -4 10 -5 0
-13 -4 -16 -10z"/>
<path d="M4020 2304 c0 -8 10 -14 23 -14 13 0 32 -9 42 -20 10 -11 22 -17 26
-14 14 8 10 24 -5 24 -8 0 -21 6 -28 13 -20 21 -58 28 -58 11z"/>
<path d="M4090 2310 c0 -13 32 -28 48 -23 25 9 12 33 -18 33 -16 0 -30 -4 -30
-10z"/>
<path d="M510 2291 c0 -10 -3 -33 -6 -50 -6 -29 -5 -31 25 -31 17 0 31 5 31
10 0 6 -8 10 -18 10 -28 0 -18 67 12 73 14 3 10 5 -11 6 -26 1 -33 -3 -33 -18z"/>
<path d="M4304 2292 c3 -6 2 -13 -4 -17 -16 -10 -2 -25 23 -25 15 0 18 3 9 9
-7 4 -12 14 -10 21 2 7 -3 15 -11 18 -8 2 -11 0 -7 -6z"/>
<path d="M925 2270 c-3 -5 -1 -10 4 -10 6 0 11 5 11 10 0 6 -2 10 -4 10 -3 0
-8 -4 -11 -10z"/>
<path d="M4151 2275 c-1 -6 4 -26 10 -45 6 -19 12 -55 13 -80 3 -50 25 -105
26 -63 0 12 7 28 15 37 8 8 15 17 15 20 0 3 -7 6 -15 6 -8 0 -15 2 -15 4 0 2
-3 11 -6 20 -4 10 -1 16 9 16 8 0 17 9 20 20 4 16 2 18 -13 10 -20 -11 -25 -6
-47 40 -6 14 -12 20 -12 15z"/>
<path d="M2981 2239 c1 -19 5 -45 9 -59 6 -16 7 -6 3 30 -7 63 -13 80 -12 29z"/>
<path d="M884 2244 c6 -14 4 -15 -10 -4 -10 9 -18 10 -22 4 -11 -17 -40 -24
-45 -11 -8 22 -16 3 -22 -53 -5 -40 -4 -51 4 -40 6 8 11 24 11 36 0 17 9 22
53 30 43 7 53 13 55 32 2 15 -2 22 -13 22 -12 0 -15 -5 -11 -16z"/>
<path d="M595 2201 c-4 -23 -11 -44 -17 -47 -6 -4 -8 1 -4 13 5 17 2 21 -19
21 -30 0 -32 -12 -6 -40 28 -30 48 -17 57 37 8 57 -1 72 -11 16z"/>
<path d="M4080 2230 c0 -5 5 -10 11 -10 5 0 7 5 4 10 -3 6 -8 10 -11 10 -2 0
-4 -4 -4 -10z"/>
<path d="M4327 2233 c-14 -4 -16 -8 -6 -19 9 -11 8 -14 -6 -14 -12 0 -16 -6
-12 -20 6 -23 -3 -26 -21 -8 -9 9 -12 9 -13 -2 0 -8 -4 -5 -9 8 -8 19 -13 21
-30 12 -26 -14 -18 -28 23 -35 70 -14 80 -35 98 -216 9 -90 9 -123 0 -132 -16
-16 -14 -44 4 -51 28 -10 17 -43 -17 -52 l-33 -8 39 -4 c38 -3 75 15 49 25
-18 6 -17 99 2 196 16 86 36 117 60 97 12 -10 15 -9 15 5 0 10 7 23 16 29 19
14 10 84 -12 93 -8 3 -14 11 -14 19 0 16 -9 18 -30 4 -13 -8 -12 -10 3 -10 10
0 16 -4 12 -9 -3 -6 1 -13 8 -18 17 -10 31 -63 17 -63 -5 0 -10 -7 -10 -17 0
-14 -2 -14 -20 2 -19 17 -20 17 -20 -1 0 -16 -2 -17 -10 -4 -5 8 -20 15 -32
15 -17 0 -24 6 -26 27 -3 21 2 27 20 31 21 4 21 4 -3 6 -30 1 -46 36 -28 58 6
6 8 17 4 23 -4 6 -1 17 5 25 13 15 9 16 -23 8z m54 -212 c6 9 9 -3 9 -35 0
-42 -2 -47 -15 -36 -9 8 -15 28 -14 54 1 22 4 32 6 22 4 -15 7 -16 14 -5z"/>
<path d="M4050 2223 c8 -3 7 -9 -1 -19 -9 -11 -8 -14 6 -14 19 0 17 32 -3 36
-7 1 -8 0 -2 -3z"/>
<path d="M3912 2204 c10 -10 20 -15 24 -12 3 4 -5 12 -18 18 -22 12 -22 12 -6
-6z"/>
<path d="M4080 2185 c0 -9 6 -12 15 -9 8 4 12 10 9 15 -8 14 -24 10 -24 -6z"/>
<path d="M4415 2180 c3 -5 8 -10 11 -10 2 0 4 5 4 10 0 6 -5 10 -11 10 -5 0
-7 -4 -4 -10z"/>
<path d="M4385 2170 c3 -5 8 -10 11 -10 2 0 4 5 4 10 0 6 -5 10 -11 10 -5 0
-7 -4 -4 -10z"/>
<path d="M3800 2151 c41 -11 39 -40 -17 -241 -5 -21 -4 -23 8 -14 8 7 30 15
49 19 59 11 151 38 147 42 -2 2 -30 -3 -63 -12 -32 -8 -71 -15 -87 -15 -26 0
-29 3 -23 23 4 12 14 56 24 98 18 87 11 110 -37 108 l-26 -1 25 -7z"/>
<path d="M3918 2143 c7 -3 16 -2 19 1 4 3 -2 6 -13 5 -11 0 -14 -3 -6 -6z"/>
<path d="M3920 2119 c0 -5 9 -9 20 -9 11 0 20 2 20 4 0 2 -9 6 -20 9 -11 3
-20 1 -20 -4z"/>
<path d="M3490 2083 c-27 -33 -66 -130 -56 -140 2 -2 11 18 21 44 10 27 28 62
40 78 47 65 44 77 -5 18z"/>
<path d="M534 2059 c1 -38 7 -61 19 -73 19 -19 23 -31 7 -21 -12 8 -13 -5 0
-25 14 -22 17 -12 23 84 6 90 -1 110 -13 33 -7 -42 -7 -42 -14 -12 -16 65 -24
70 -22 14z"/>
<path d="M1353 2080 c-6 -14 -13 -38 -16 -55 -5 -24 -2 -22 14 13 11 24 18 49
16 55 -3 7 -9 1 -14 -13z"/>
<path d="M3941 2087 c-14 -14 -15 -30 -1 -22 6 4 17 2 24 -4 10 -9 15 -8 19 2
7 19 -27 39 -42 24z"/>
<path d="M510 2069 c0 -11 4 -18 10 -14 5 3 7 12 3 20 -7 21 -13 19 -13 -6z"/>
<path d="M870 2025 c0 -9 5 -15 11 -13 6 2 11 8 11 13 0 5 -5 11 -11 13 -6 2
-11 -4 -11 -13z"/>
<path d="M2650 2031 c0 -12 28 -22 35 -12 3 5 -2 12 -11 15 -21 8 -24 8 -24
-3z"/>
<path d="M3966 2023 c-16 -16 -2 -22 45 -18 57 4 70 10 39 18 -11 3 -20 1 -20
-5 0 -5 -6 -6 -12 -1 -18 10 -44 14 -52 6z"/>
<path d="M821 2004 c0 -11 3 -14 6 -6 3 7 2 16 -1 19 -3 4 -6 -2 -5 -13z"/>
<path d="M2595 2004 c-19 -15 -19 -15 10 -10 17 4 24 3 17 0 -10 -5 -10 -9 -1
-20 13 -15 34 -20 25 -5 -4 5 0 11 6 14 10 3 10 7 -1 20 -17 21 -30 21 -56 1z"/>
<path d="M2540 1989 c0 -5 5 -7 10 -4 6 3 10 8 10 11 0 2 -4 4 -10 4 -5 0 -10
-5 -10 -11z"/>
<path d="M2518 1963 c6 -2 18 -2 25 0 6 3 1 5 -13 5 -14 0 -19 -2 -12 -5z"/>
<path d="M2196 1951 c4 -8 10 -53 14 -100 l7 -86 2 81 c1 60 -3 85 -15 100 -8
10 -12 13 -8 5z"/>
<path d="M3411 1889 c-6 -18 -9 -34 -7 -36 2 -2 9 10 15 28 6 18 9 34 7 36 -2
2 -9 -10 -15 -28z"/>
<path d="M4160 1911 c0 -7 13 -30 29 -50 15 -20 36 -50 45 -68 21 -43 36 -50
36 -19 0 14 -4 25 -9 24 -5 -2 -30 26 -55 61 -25 36 -46 59 -46 52z"/>
<path d="M2867 1863 c-3 -5 -8 -35 -11 -68 -7 -61 -23 -153 -33 -190 -4 -14
-2 -17 5 -10 9 9 28 108 46 238 5 35 2 46 -7 30z"/>
<path d="M3377 1823 c-15 -14 -5 -23 26 -23 30 1 31 1 13 15 -22 17 -29 18
-39 8z"/>
<path d="M4170 1829 c0 -4 11 -27 25 -50 14 -24 25 -39 25 -34 0 11 -49 94
-50 84z"/>
<path d="M4155 1796 c10 -14 19 -26 22 -26 7 0 -17 39 -28 46 -6 3 -3 -5 6
-20z"/>
<path d="M514 1745 c-11 -18 -14 -35 -9 -65 8 -48 26 -54 24 -7 -3 37 8 77 21
77 5 0 17 -11 26 -25 9 -14 25 -25 35 -25 16 0 14 6 -15 35 -42 41 -60 44 -82
10z"/>
<path d="M955 1743 c48 -12 48 -15 29 -153 -3 -27 -2 -31 6 -18 6 9 13 50 16
91 7 72 6 74 -17 80 -13 4 -31 6 -39 6 -8 -1 -6 -3 5 -6z"/>
<path d="M1976 1738 c-2 -7 -11 -47 -21 -88 -9 -41 -19 -81 -22 -89 -3 -8 -1
-11 5 -7 18 11 62 196 47 196 -3 0 -7 -6 -9 -12z"/>
<path d="M2220 1741 c0 -6 5 -13 10 -16 6 -3 10 1 10 9 0 9 -4 16 -10 16 -5 0
-10 -4 -10 -9z"/>
<path d="M3317 1701 c-4 -19 -5 -36 -2 -39 10 -11 16 7 13 40 l-3 33 -8 -34z"/>
<path d="M1487 1675 c-6 -54 -27 -81 -82 -106 -22 -10 -34 -19 -28 -19 29 0
103 45 112 69 14 37 21 101 12 101 -5 0 -11 -20 -14 -45z"/>
<path d="M506 1587 c-5 -26 -6 -51 -2 -54 12 -13 17 6 14 53 l-3 49 -9 -48z"/>
<path d="M3330 1582 c0 -12 19 -26 26 -19 2 2 -2 10 -11 17 -9 8 -15 8 -15 2z"/>
<path d="M2778 1563 c7 -3 16 -2 19 1 4 3 -2 6 -13 5 -11 0 -14 -3 -6 -6z"/>
</g>
</svg>
