<?xml version="1.0" encoding="utf-8"?>
<!-- Generator: Adobe Illustrator 17.0.0, SVG Export Plug-In . SVG Version: 6.00 Build 0)  -->
<!DOCTYPE svg PUBLIC "-//W3C//DTD SVG 1.1//EN" "http://www.w3.org/Graphics/SVG/1.1/DTD/svg11.dtd">
<svg version="1.1" id="Capa_1" xmlns="http://www.w3.org/2000/svg" xmlns:xlink="http://www.w3.org/1999/xlink" x="0px" y="0px"
	 width="500px" height="554.5px" viewBox="0 0 500 554.5" enable-background="new 0 0 500 554.5" xml:space="preserve">
<g>
	<g>
		<defs>
			<path id="SVGID_1_" d="M230.512,448.351c17.932,0,32.47,14.405,32.47,32.172s-14.538,32.172-32.47,32.172
				c-17.932,0-32.47-14.405-32.47-32.172S212.58,448.351,230.512,448.351"/>
		</defs>
		<use xlink:href="#SVGID_1_"  overflow="visible" fill-rule="evenodd" clip-rule="evenodd" fill="#333333"/>
		<clipPath id="SVGID_2_">
			<use xlink:href="#SVGID_1_"  overflow="visible"/>
		</clipPath>
		<g clip-path="url(#SVGID_2_)">
			<defs>
				<rect id="SVGID_3_" x="76.683" y="48.75" width="363.744" height="465.254"/>
			</defs>
			<use xlink:href="#SVGID_3_"  overflow="visible" fill="#333333"/>
			<clipPath id="SVGID_4_">
				<use xlink:href="#SVGID_3_"  overflow="visible"/>
			</clipPath>
			<rect x="155.747" y="406.055" clip-path="url(#SVGID_4_)" fill="#333333" width="149.531" height="148.936"/>
		</g>
	</g>
	<g>
		<defs>
			<path id="SVGID_5_" d="M284.054,354.826c22.699,0,41.099,18.231,41.099,40.722s-18.4,40.722-41.099,40.722
				c-22.699,0-41.099-18.231-41.099-40.722S261.355,354.826,284.054,354.826"/>
		</defs>
		<use xlink:href="#SVGID_5_"  overflow="visible" fill-rule="evenodd" clip-rule="evenodd" fill="#333333"/>
		<clipPath id="SVGID_6_">
			<use xlink:href="#SVGID_5_"  overflow="visible"/>
		</clipPath>
		<g clip-path="url(#SVGID_6_)">
			<defs>
				<rect id="SVGID_7_" x="76.683" y="48.75" width="363.744" height="465.254"/>
			</defs>
			<use xlink:href="#SVGID_7_"  overflow="visible" fill="#333333"/>
			<clipPath id="SVGID_8_">
				<use xlink:href="#SVGID_7_"  overflow="visible"/>
			</clipPath>
			<rect x="200.659" y="312.53" clip-path="url(#SVGID_8_)" fill="#333333" width="166.79" height="166.036"/>
		</g>
	</g>
	<g>
		<defs>
			<path id="SVGID_9_" d="M177.104,354.826c22.699,0,41.099,18.231,41.099,40.722s-18.4,40.722-41.099,40.722
				c-22.699,0-41.099-18.231-41.099-40.722S154.405,354.826,177.104,354.826"/>
		</defs>
		<use xlink:href="#SVGID_9_"  overflow="visible" fill-rule="evenodd" clip-rule="evenodd" fill="#333333"/>
		<clipPath id="SVGID_10_">
			<use xlink:href="#SVGID_9_"  overflow="visible"/>
		</clipPath>
		<g clip-path="url(#SVGID_10_)">
			<defs>
				<rect id="SVGID_11_" x="-30.267" y="48.75" width="363.744" height="465.254"/>
			</defs>
			<use xlink:href="#SVGID_11_"  overflow="visible" fill="#333333"/>
			<clipPath id="SVGID_12_">
				<use xlink:href="#SVGID_11_"  overflow="visible"/>
			</clipPath>
			<rect x="93.709" y="312.53" clip-path="url(#SVGID_12_)" fill="#333333" width="166.79" height="166.036"/>
		</g>
	</g>
	<g>
		<defs>
			<path id="SVGID_13_" d="M119.734,266.54c23.777,0,43.051,19.098,43.051,42.657c0,23.559-19.274,42.657-43.051,42.657
				s-43.051-19.098-43.051-42.657C76.683,285.638,95.958,266.54,119.734,266.54"/>
		</defs>
		<use xlink:href="#SVGID_13_"  overflow="visible" fill-rule="evenodd" clip-rule="evenodd" fill="#333333"/>
		<clipPath id="SVGID_14_">
			<use xlink:href="#SVGID_13_"  overflow="visible"/>
		</clipPath>
		<g clip-path="url(#SVGID_14_)">
			<defs>
				<rect id="SVGID_15_" x="76.683" y="48.75" width="363.744" height="465.254"/>
			</defs>
			<use xlink:href="#SVGID_15_"  overflow="visible" fill="#333333"/>
			<clipPath id="SVGID_16_">
				<use xlink:href="#SVGID_15_"  overflow="visible"/>
			</clipPath>
			<rect x="34.387" y="224.244" clip-path="url(#SVGID_16_)" fill="#333333" width="170.694" height="169.905"/>
		</g>
	</g>
	<g>
		<defs>
			<path id="SVGID_17_" d="M230.516,266.54c23.777,0,43.051,19.098,43.051,42.657c0,23.559-19.274,42.657-43.051,42.657
				c-23.777,0-43.051-19.098-43.051-42.657C187.465,285.638,206.739,266.54,230.516,266.54"/>
		</defs>
		<use xlink:href="#SVGID_17_"  overflow="visible" fill-rule="evenodd" clip-rule="evenodd" fill="#333333"/>
		<clipPath id="SVGID_18_">
			<use xlink:href="#SVGID_17_"  overflow="visible"/>
		</clipPath>
		<g clip-path="url(#SVGID_18_)">
			<defs>
				<rect id="SVGID_19_" x="76.683" y="48.75" width="363.744" height="465.254"/>
			</defs>
			<use xlink:href="#SVGID_19_"  overflow="visible" fill="#333333"/>
			<clipPath id="SVGID_20_">
				<use xlink:href="#SVGID_19_"  overflow="visible"/>
			</clipPath>
			<rect x="145.169" y="224.244" clip-path="url(#SVGID_20_)" fill="#333333" width="170.695" height="169.905"/>
		</g>
	</g>
	<g>
		<defs>
			<path id="SVGID_21_" d="M341.425,266.54c23.777,0,43.051,19.098,43.051,42.657c0,23.559-19.274,42.657-43.051,42.657
				c-23.777,0-43.051-19.098-43.051-42.657C298.374,285.638,317.648,266.54,341.425,266.54"/>
		</defs>
		<use xlink:href="#SVGID_21_"  overflow="visible" fill-rule="evenodd" clip-rule="evenodd" fill="#333333"/>
		<clipPath id="SVGID_22_">
			<use xlink:href="#SVGID_21_"  overflow="visible"/>
		</clipPath>
		<g clip-path="url(#SVGID_22_)">
			<defs>
				<rect id="SVGID_23_" x="76.683" y="48.75" width="363.744" height="465.254"/>
			</defs>
			<use xlink:href="#SVGID_23_"  overflow="visible" fill="#333333"/>
			<clipPath id="SVGID_24_">
				<use xlink:href="#SVGID_23_"  overflow="visible"/>
			</clipPath>
			<rect x="256.078" y="224.244" clip-path="url(#SVGID_24_)" fill="#333333" width="170.694" height="169.905"/>
		</g>
	</g>
	<g>
		<defs>
			<path id="SVGID_25_" d="M290.038,176.472c25.237,0,45.697,20.272,45.697,45.278c0,25.006-20.46,45.278-45.697,45.278
				s-45.697-20.272-45.697-45.278C244.341,196.744,264.801,176.472,290.038,176.472"/>
		</defs>
		<use xlink:href="#SVGID_25_"  overflow="visible" fill-rule="evenodd" clip-rule="evenodd" fill="#333333"/>
		<clipPath id="SVGID_26_">
			<use xlink:href="#SVGID_25_"  overflow="visible"/>
		</clipPath>
		<g clip-path="url(#SVGID_26_)">
			<defs>
				<rect id="SVGID_27_" x="76.683" y="48.75" width="363.744" height="465.254"/>
			</defs>
			<use xlink:href="#SVGID_27_"  overflow="visible" fill="#333333"/>
			<clipPath id="SVGID_28_">
				<use xlink:href="#SVGID_27_"  overflow="visible"/>
			</clipPath>
			<rect x="202.045" y="134.176" clip-path="url(#SVGID_28_)" fill="#333333" width="175.985" height="175.147"/>
		</g>
	</g>
	<g>
		<defs>
			<path id="SVGID_29_" d="M169.671,176.472c25.237,0,45.697,20.272,45.697,45.278c0,25.006-20.46,45.278-45.697,45.278
				s-45.697-20.272-45.697-45.278C123.974,196.744,144.433,176.472,169.671,176.472"/>
		</defs>
		<use xlink:href="#SVGID_29_"  overflow="visible" fill-rule="evenodd" clip-rule="evenodd" fill="#333333"/>
		<clipPath id="SVGID_30_">
			<use xlink:href="#SVGID_29_"  overflow="visible"/>
		</clipPath>
		<g clip-path="url(#SVGID_30_)">
			<defs>
				<rect id="SVGID_31_" x="-43.685" y="48.75" width="363.744" height="465.254"/>
			</defs>
			<use xlink:href="#SVGID_31_"  overflow="visible" fill="#333333"/>
			<clipPath id="SVGID_32_">
				<use xlink:href="#SVGID_31_"  overflow="visible"/>
			</clipPath>
			<rect x="81.678" y="134.176" clip-path="url(#SVGID_32_)" fill="#333333" width="175.985" height="175.147"/>
		</g>
	</g>
</g>
<g>
	<defs>
		<path id="SVGID_33_" d="M234.688,182.647c0,0,6.406-32.75,25.294-69.041c9.387-18.033,55.986-57.201,55.986-57.201
			c4.268-4.848,2.618-7.485-3.664-5.861l-31.457,8.13c-6.28,1.624-16.371,1.045-22.424-1.287l-20.491-7.895
			c-6.051-2.332-11.002,1.024-11.002,7.456v122.814C226.931,186.198,230.42,187.495,234.688,182.647"/>
	</defs>
	<use xlink:href="#SVGID_33_"  overflow="visible" fill-rule="evenodd" clip-rule="evenodd" fill="#333333"/>
	<clipPath id="SVGID_34_">
		<use xlink:href="#SVGID_33_"  overflow="visible"/>
	</clipPath>
	<g clip-path="url(#SVGID_34_)">
		<defs>
			<rect id="SVGID_35_" x="72.001" y="48.75" width="363.744" height="465.254"/>
		</defs>
		<use xlink:href="#SVGID_35_"  overflow="visible" fill="#333333"/>
		<clipPath id="SVGID_36_">
			<use xlink:href="#SVGID_35_"  overflow="visible"/>
		</clipPath>
		<rect x="184.635" y="6.455" clip-path="url(#SVGID_36_)" fill="#333333" width="176.002" height="221.422"/>
	</g>
</g>
<g>
	<defs>
		<path id="SVGID_37_" d="M415.957,86.976c-12.747-13.42-30.007-21.119-48.596-21.677c-22.729-0.674-44.414,7.453-60.989,22.911
			c-16.578,15.458-26.088,36.388-26.776,58.933c-0.123,3.979,3.036,7.303,7.051,7.423c4.03,0.104,7.37-3.008,7.492-6.987
			c0.571-18.695,8.457-36.051,22.204-48.871c13.748-12.819,31.719-19.577,50.578-18.999c14.704,0.442,28.357,6.531,38.44,17.146
			c10.083,10.616,15.392,24.487,14.945,39.058c-0.71,23.268-20.396,41.62-43.882,40.923c-17.986-0.54-32.176-15.478-31.631-33.298
			c0.198-6.521,2.95-12.576,7.744-17.048c4.795-4.472,11.059-6.828,17.642-6.628c4.875,0.146,9.403,2.165,12.747,5.687
			c3.345,3.52,5.104,8.12,4.957,12.952c-0.122,3.979,3.036,7.302,7.05,7.423c4.025,0.117,7.37-3.008,7.492-6.987
			c0.266-8.681-2.895-16.944-8.902-23.269c-6.009-6.325-14.141-9.952-22.904-10.216c-10.465-0.309-20.429,3.428-28.053,10.54
			c-7.627,7.111-12,16.737-12.317,27.109c-0.788,25.766,19.727,47.363,45.734,48.144c0.594,0.018,1.184,0.026,1.772,0.026
			c14.612,0,28.449-5.43,39.136-15.394c11.116-10.369,17.495-24.407,17.957-39.528C435.415,117.93,428.707,100.393,415.957,86.976"
			/>
	</defs>
	<use xlink:href="#SVGID_37_"  overflow="visible" fill-rule="evenodd" clip-rule="evenodd" fill="#333333"/>
	<clipPath id="SVGID_38_">
		<use xlink:href="#SVGID_37_"  overflow="visible"/>
	</clipPath>
	<g clip-path="url(#SVGID_38_)">
		<defs>
			<rect id="SVGID_39_" x="72.001" y="48.75" width="363.744" height="465.254"/>
		</defs>
		<use xlink:href="#SVGID_39_"  overflow="visible" fill="#333333"/>
		<clipPath id="SVGID_40_">
			<use xlink:href="#SVGID_39_"  overflow="visible"/>
		</clipPath>
		<rect x="237.297" y="22.964" clip-path="url(#SVGID_40_)" fill="#333333" width="239.882" height="210.603"/>
	</g>
</g>
<circle fill="none" cx="226.167" cy="480.55" r="32.133"/>
</svg>
