<svg width="25" height="17" viewBox="0 0 25 17" fill="none" xmlns="http://www.w3.org/2000/svg">
<path d="M1.54049 1.5C1.17295 1.5 0.875 1.16421 0.875 0.75C0.875 0.335786 1.17295 0 1.54049 0H24.1673C24.5348 0 24.8327 0.335786 24.8327 0.75C24.8327 1.16421 24.5348 1.5 24.1673 1.5H1.54049ZM1.54049 9C1.17295 9 0.875 8.66421 0.875 8.25C0.875 7.83579 1.17295 7.5 1.54049 7.5H24.1673C24.5348 7.5 24.8327 7.83579 24.8327 8.25C24.8327 8.66421 24.5348 9 24.1673 9H1.54049ZM1.54049 16.5C1.17295 16.5 0.875 16.1642 0.875 15.75C0.875 15.3358 1.17295 15 1.54049 15H24.1673C24.5348 15 24.8327 15.3358 24.8327 15.75C24.8327 16.1642 24.5348 16.5 24.1673 16.5H1.54049Z" fill="white"/>
</svg>
